<?xml version="1.0" encoding="UTF-8" standalone="no"?>
<svg xmlns:svg="http://www.w3.org/2000/svg" xmlns="http://www.w3.org/2000/svg" width="1000" height="960" viewBox="4 46 1.46988406 0.9726639272" preserveAspectRatio="none">
  <style>
    .commune, .commune1  {
        fill:#f2f2f2;fill-opacity:1;stroke:#000000;stroke-width:0.00122036;stroke-miterlimit:4;stroke-dasharray:none;stroke-opacity:1;
    }
    .commune1 {
        stroke-width:0.10000015;
    }
  </style>
  <g style="fill:#f2f2f2;fill-opacity:1" id="g41815">
    <path d="m 4.9175887,46.70386 -0.018577,-0.0042 -0.0225,-0.0028 -0.00651,-0.0085 -0.011479,-0.01 0.00187,-0.0128 0.00866,-0.0022 0.0096,-0.0075 0.00127,4.8e-4 0.0039,0.006 0.022346,0.0061 -0.00203,0.01 0.015947,0.01189 -0.00251,0.01342 z" id="69266 VILLEURBANNE" class="commune"/>
    <path d="m 4.837269,46.598524 -0.01854,-0.003 0.01276,-0.02285 0.00516,0.004 1.854e-4,0.0088 0.00305,0.0065 -0.00261,0.0067 z" id="69003 ALBIGNY-SUR-SAONE" class="commune"/>
    <path d="m 4.8430512,46.673541 -0.017656,-0.0056 -0.00622,-0.0053 0.022311,-0.01386 0.00387,-0.009 0.010893,-0.0056 0.00924,0.0034 0.013182,0.01843 -0.0096,0.0075 -0.00866,0.0022 -0.00892,6.1e-4 -0.00843,0.0072 z" id="69034 CALUIRE-ET-CUIRE" class="commune"/>
    <path d="m 4.8414846,46.648709 -0.00454,-0.0047 0.00188,-0.0063 -0.00339,-0.006 -0.0076,-0.0031 -7.07e-5,-0.0064 0.011024,-0.0041 0.00265,6.2e-4 0.011421,0.006 0.00339,0.0094 -0.010893,0.0056 -0.00387,0.009 z" id="69063 COLLONGES-AU-MONT-D'OR" class="commune"/>
    <path d="m 4.8319968,46.612499 -0.025137,-0.0037 -0.00129,-2.19e-4 0.00753,-0.01112 0.00563,-0.0019 0.01854,0.003 -7.44e-4,0.0018 -0.00453,0.01215 z" id="69068 COUZON-AU-MONT-D'OR" class="commune"/>
    <path d="m 4.8130964,46.597449 -0.00578,-0.01448 0.012531,-0.01246 0.011639,0.0021 -0.01276,0.02285 -0.00563,0.0019 z" id="69071 CURIS-AU-MONT-D'OR" class="commune"/>
    <path d="m 4.8453836,46.604105 -0.00886,-0.0038 7.44e-4,-0.0018 0.00261,-0.0067 -0.00305,-0.0065 0.015213,0.0012 0.024218,0.0044 -0.021688,0.0051 -0.00919,0.008 z" id="69085 FLEURIEU-SUR-SAONE" class="commune"/>
    <path d="m 4.8642088,46.619151 -0.010279,-0.0047 -0.013257,6.66e-4 0.00471,-0.011 0.00919,-0.008 0.01226,0.01787 -0.00262,0.0052 z" id="69087 FONTAINES-SAINT-MARTIN" class="commune"/>
    <path d="m 4.8654811,46.637547 -0.00924,-0.0034 -0.00339,-0.0094 -0.011421,-0.006 -7.581e-4,-0.0035 0.013257,-6.66e-4 0.010279,0.0047 0.0013,0.0012 7.059e-4,0.01685 -7.316e-4,3.03e-4 z" id="69088 FONTAINES-SUR-SAONE" class="commune"/>
    <path d="m 4.852043,46.586569 -0.015213,-0.0012 -1.854e-4,-0.0088 -0.00516,-0.004 -0.011639,-0.0021 -0.00503,-0.0027 0.013368,-0.0045 0.019018,-0.0013 0.010768,-0.0072 0.00496,1.45e-4 0.00317,0.0062 -0.00281,0.0061 -0.00919,0.0015 -0.00517,0.0056 -0.00158,0.0066 0.00469,0.0056 z" id="69143 NEUVILLE-SUR-SAONE" class="commune"/>
    <path d="m 4.7868282,46.610109 -0.015795,-0.0082 0.00999,-0.0065 0.00668,-0.01243 0.019613,-5.7e-5 0.00578,0.01448 -0.00753,0.01112 -0.012086,0.0011 -0.00665,4.44e-4 z" id="69153 POLEYMIEUX-AU-MONT-D'OR" class="commune"/>
    <path d="m 4.841431,46.618651 -0.00265,-6.2e-4 -0.00679,-0.0055 0.00453,-0.01215 0.00886,0.0038 -0.00471,0.011 7.581e-4,0.0035 z" id="69168 ROCHETAILLEE-SUR-SAONE" class="commune"/>
    <path d="m 4.8182593,46.652782 -0.00944,-0.0079 8.098e-4,-0.01371 -0.016152,-0.0215 0.012086,-0.0011 0.00129,2.19e-4 0.00383,0.01322 0.00372,0.0022 0.013353,-0.0021 7.07e-5,0.0064 0.0076,0.0031 0.00339,0.006 -0.00188,0.0063 -0.018682,0.0088 z" id="69191 SAINT-CYR-AU-MONT-D'OR" class="commune"/>
    <path d="m 4.8182593,46.652782 -0.012025,0.0098 -0.00356,-0.0021 -0.00539,-0.0085 -0.011863,-0.0051 -0.00316,-0.0061 0.00705,-0.01799 -0.00248,-0.01264 0.00665,-4.44e-4 0.016152,0.0215 -8.098e-4,0.01371 0.00944,0.0079 z" id="69194 SAINT-DIDIER-AU-MONT-D'OR" class="commune"/>
    <path d="m 4.8277604,46.622122 -0.013353,0.0021 -0.00372,-0.0022 -0.00383,-0.01322 0.025137,0.0037 0.00679,0.0055 -0.011024,0.0041 z" id="69233 SAINT-ROMAIN-AU-MONT-D'OR" class="commune"/>
    <path d="m 4.8662127,46.637244 -7.059e-4,-0.01685 0.013952,0.0027 0.014241,-0.0069 -0.027487,0.02098 z" id="69292 SATHONAY-CAMP" class="commune"/>
    <path d="m 4.6409656,46.331241 -0.020619,-0.0132 0.01496,-0.0212 -0.00399,-0.0098 -0.016956,-0.01626 0.00508,-0.0038 0.026262,0.02063 0.00501,0.01325 0.025079,0.01646 -0.012917,0.0047 -0.014692,4.89e-4 -0.00722,0.0088 z" id="69165 REGNIE-DURETTE" class="commune"/>
    <path d="m 4.5698455,46.286832 -0.021144,-0.0041 -0.023621,-0.0051 -0.015001,0.0014 -0.010029,-0.01108 -0.020002,-0.01367 0.0063,-0.0069 0.017421,0.0047 0.036688,-0.0076 0.012879,-0.0036 0.015963,0.01114 0.0074,0.0098 0.00149,0.0063 -0.00834,0.01855 z" id="69012 LES LARDILLATS" class="commune"/>
    <path d="m 4.6143656,46.270758 -0.00294,-0.0011 -0.025103,4.22e-4 -0.00963,-0.0081 -0.0074,-0.0098 0.023438,-0.0022 0.00615,-0.0053 0.00292,-0.01018 0.00794,-0.0035 -0.00116,0.01042 0.01805,0.01647 -0.00638,0.0031 0.00193,0.0026 -0.00273,0.0034 -0.00508,0.0038 z" id="69015 AVENAS" class="commune"/>
    <path d="m 4.5784048,46.322734 -0.01459,0.0019 -0.017593,-0.0064 0.013099,-0.0096 0.010524,-0.02185 0.00834,-0.01855 -0.00149,-0.0063 0.00963,0.0081 0.025103,-4.22e-4 0.00128,0.01028 -0.010395,0.02964 -0.00906,5.3e-4 -0.014849,0.01263 z" id="69018 BEAUJEU" class="commune"/>
    <path d="m 4.6803905,46.275029 -0.00581,0.0046 -0.024527,-0.0035 -0.017815,-0.01216 -0.010063,-4.6e-4 -0.00193,-0.0026 0.00638,-0.0031 0.018287,0.0013 0.012319,-0.0047 0.00895,0.0013 0.014208,0.01929 z" id="69058 CHIROUBLES" class="commune"/>
    <path d="m 4.6827704,46.239298 -0.00793,-0.0043 -0.015988,-0.0055 -0.00562,-0.01217 0.020814,0.0065 0.022224,-0.0031 0.00144,0.0026 -0.016451,0.007 -0.00241,0.003 0.00392,0.006 z" id="69082 EMERINGES" class="commune"/>
    <path d="m 4.5404545,46.24454 -0.036688,0.0076 -0.017421,-0.0047 -0.00259,-0.0048 0.00368,-0.02413 -0.00254,-0.003 0.0035,-0.0053 0.00768,-0.0022 0.034734,0.002 0.00892,0.0031 0.00539,0.0059 0.00149,0.01658 -0.00615,0.0089 z" id="69135 MONSOLS" class="commune"/>
    <path d="m 4.5692959,46.252122 -0.015963,-0.01114 -0.012879,0.0036 0.00615,-0.0089 -0.00149,-0.01658 0.00928,-0.0064 0.014654,0.0014 0.013641,-0.004 0.0012,-0.0034 0.02953,-0.003 0.00943,0.0021 4.105e-4,0.0098 -0.00979,0.0064 -0.00373,0.0091 -0.00794,0.0035 -0.00292,0.01018 -0.00615,0.0053 -0.023438,0.0022 z" id="69150 OUROUX" class="commune"/>
    <path d="m 4.6661825,46.255743 -0.00895,-0.0013 -0.012319,0.0047 -0.018287,-0.0013 -0.01805,-0.01647 0.00116,-0.01042 0.00373,-0.0091 0.00979,-0.0064 -4.105e-4,-0.0098 0.0074,-0.0018 0.022987,0.01349 0.00562,0.01217 0.015988,0.0055 -0.00905,0.0075 3.884e-4,0.01325 z" id="69258 VAUXRENARD" class="commune"/>
    <path d="m 4.6910698,46.318907 -0.015277,-0.0016 -0.025079,-0.01646 -0.00501,-0.01325 -0.026262,-0.02063 0.00273,-0.0034 0.010063,4.6e-4 0.017815,0.01216 0.024527,0.0035 0.00581,-0.0046 0.015281,0.0031 0.00835,0.0063 -0.00391,0.01643 0.00278,0.0064 -0.00426,0.0086 -0.00757,0.003 z" id="69267 VILLIE-MORGON" class="commune"/>
    <path class="commune1" d="m 644.95703,493.26172 -0.62891,0.76953 -0.63671,0.17773 -0.21485,0.23829 0.24219,0.20703 0.0547,0.94726 -0.36719,1.16797 -0.29492,0.11914 -1.13286,-0.83784 -0.81446,0.98828 -2.15429,0.0977 -0.18165,0.23633 0.69727,1.29883 0.58789,0.3457 0.6875,1.14648 0.52539,0.33594 1.17969,-0.30664 0,0.004 0.006,-0.008 0.0469,-0.01 0,0.002 0.30469,1.33984 0,0.006 0.82617,-0.98632 0.91602,0.0742 0.57226,-1.10156 0.63672,0.15625 0.1875,-0.63086 0,-0.002 0.88867,-0.0684 -0.041,-0.62109 0.008,-3.00196 -0.13281,-1.48242 -0.78711,-0.58203 z" transform="matrix(0.01469884,0,0,0.01013192,-5.1390171,41.362759)" id="69041 LA LCHAPELLE-DE-MARDORE" />
    <path d="m 4.3569165,46.448697 0.00638,-0.0051 0.00304,-0.0098 -0.00898,-0.0025 -0.00364,-0.006 0.00274,-0.0064 0.013051,-6.9e-4 -5.795e-4,-0.0063 0.026347,-0.0063 0.0059,0.0089 0.0047,-6.8e-5 0.017934,0.0106 0.00723,0.007 -0.00351,0.0021 -0.014245,-0.0011 -0.033144,0.01487 -0.023229,6.92e-4 z" id="69070 CUBLIZE" class="commune"/>
    <path d="m 4.4238144,46.425075 -0.017934,-0.0106 -0.0047,6.8e-5 -0.0059,-0.0089 0.00121,-0.0064 0.044797,-0.0084 0.0074,0.006 -0.010772,0.01124 -1.963e-4,0.007 -0.013903,0.01004 z" id="69130 MEAUX-LA-MONTAGNE" class="commune"/>
    <path d="m 4.3899173,46.503702 -0.015729,-0.0086 -0.017005,-0.02886 9.77e-4,-0.01027 -0.00475,-0.0012 0.00351,-0.006 0.023229,-6.92e-4 0.033144,-0.01487 0.014245,0.0011 -0.00901,0.01492 3.227e-4,0.01305 -0.010797,0.01749 -0.017697,0.01694 -4.379e-4,0.0071 z" id="69169 RONNO" class="commune"/>
    <path d="m 4.396491,46.399238 0.00197,-0.0068 -0.00614,-0.02322 0.00915,-0.0027 0.023362,-0.01744 0.00784,0.0014 0.00991,0.01617 0.00188,0.01752 -0.00317,0.0066 -0.044797,0.0084 z" id="69183 SAINT-BONNET-LE-TRONCY" class="commune"/>
    <path d="m 4.3689329,46.411925 9.79e-5,-0.03042 -0.00196,-0.01493 0.00332,-0.0059 0.013463,-0.0036 0.00538,-0.0091 0.00718,0.0038 0.028421,-0.0026 -0.023362,0.01744 -0.00915,0.0027 0.00614,0.02322 -0.00197,0.0068 -0.00121,0.0064 -0.026347,0.0063 z" id="69240 SAINT-VINCENT-DE-REINS" class="commune"/>
    <path d="m 4.4228031,46.529635 -0.00427,0.0013 -0.018105,-0.0097 -0.00224,-0.0092 -0.00858,-0.0018 3.053e-4,-0.0065 4.379e-4,-0.0071 0.017697,-0.01694 0.00382,0.0057 0.00438,7.66e-4 0.00676,-0.0038 0.00594,0.0047 0.00435,-8.64e-4 0.031886,0.02143 -0.025473,0.0089 -0.00162,0.0061 -0.015296,0.0071 z" id="69254 VALSONNE" class="commune"/>
    <path d="m 4.77611,46.928278 -0.019334,-0.0033 -0.00583,-0.0052 -9.327e-4,-0.0098 0.00544,-0.009 0.011188,-0.0059 0.041807,-0.01523 0.00757,0.007 0.00469,0.0068 -0.013413,0.0087 -0.018778,0.02377 -0.012397,0.0022 z" id="69118 LOIRE-SUR-RHONE" class="commune"/>
    <path d="m 5.0566259,46.720011 -0.0091,-0.01889 -0.010517,-0.01034 -7.452e-4,-0.0063 0.014137,0.0016 0.00921,-0.01598 0.00974,0.01566 0.024196,3.75e-4 -0.00366,0.01341 0.00465,0.01318 -0.037901,0.0073 z" id="69285 PUSIGNAN" class="commune"/>
    <path d="m 5.0540247,46.792099 -0.027815,-0.0087 -0.015152,-0.0013 0.02009,-0.01072 0.00953,-0.01596 0.01963,-0.01106 0.017543,0.01114 0.013802,0.0011 0.012625,-0.0028 0.00279,0.01008 -0.017909,0.01102 -0.00964,0.001 -0.025502,0.01613 z" id="69288 SAINT-LAURENT-DE-MURE" class="commune"/>
    <path d="m 5.104281,46.75386 -0.012625,0.0028 -0.013802,-0.0011 -0.017543,-0.01114 -0.00281,-0.0023 0.00277,-0.0088 -0.00365,-0.01324 0.037901,-0.0073 0.032153,0.0019 0.00707,0.0042 0.01258,0.0136 0.012914,0.0045 -0.00525,0.01553 -0.00501,-0.0048 -0.00883,0.0022 -0.00879,-0.0028 -0.027091,0.0068 z" id="69299 COLOMBIER-SAUGNIEU" class="commune"/>
    <path d="m 4.4810881,46.792048 -0.00768,0.0023 -0.016298,-0.0044 1.003e-4,-0.0033 -0.016155,-0.01151 0.00746,-0.0083 -0.00242,-0.0028 0.012419,-0.01093 0.0071,0.0038 0.00842,-0.0073 0.00454,-2.1e-4 0.00775,0.0082 0.017481,0.0051 0.0039,0.01004 -0.00103,0.01033 -0.00439,0.0016 -0.021213,0.0074 z" id="69014 AVEIZE" class="commune"/>
    <path d="m 4.5054322,46.721499 -0.01068,-0.01455 -5.662e-4,-0.0062 0.030609,-0.0076 0.023759,0.0071 -0.025434,0.01255 -0.00927,0.0013 -0.00842,0.0073 z" id="69031 BRUSSIEU" class="commune"/>
    <path d="m 4.78867,46.662623 -0.018344,-0.01133 4.024e-4,-0.0017 0.00839,-0.0026 0.00314,-0.0062 0.00316,0.0061 0.011863,0.0051 0.00539,0.0085 -0.014002,0.0022 z" id="69040 CHAMPAGNE-AU-MONT-D'OR" class="commune"/>
    <path d="m 4.5143988,46.811549 -0.00765,0.0038 -0.028033,-0.0026 0.00238,-0.02067 0.021213,-0.0074 0.010687,0.01883 0.00141,0.008 z" id="69042 LA LCHAPELLE-SUR-COISE" class="commune"/>
    <path d="m 4.6497809,46.823215 -0.00936,-3.44e-4 -0.021909,0.0064 -0.00479,1.83e-4 -0.00191,-0.0031 -0.00355,-0.0063 0.00179,-0.0069 0.013952,-0.0033 0.028118,-0.01325 0.00159,0.0019 0.00497,0.0046 -0.00299,0.0054 -0.00233,0.01269 -0.00358,0.002 z" id="69051 CHAUSSAN" class="commune"/>
    <path d="m 4.5662787,46.73274 -0.00836,0.003 -0.017484,-0.0056 -0.00945,8.35e-4 -0.00982,-0.0076 0.00196,-0.01045 0.025434,-0.01255 0.019976,-0.0157 0.00317,-0.0067 0.015858,0.008 0.00621,0.0093 0.023757,7.07e-4 1.692e-4,3.72e-4 -0.00649,0.005 0.00355,0.01323 -0.012761,0.01025 -0.00753,0.0042 -0.00977,-6.42e-4 -0.018422,0.0044 z" id="69067 COURZIEU" class="commune"/>
    <path d="m 4.5129879,46.803505 -0.010687,-0.01883 0.00439,-0.0016 0.00103,-0.01033 -0.0039,-0.01004 0.0067,-0.004 0.01169,-0.01007 0.016331,0.0058 0.00918,-8.92e-4 0.00561,0.0056 -0.00192,0.0065 -0.013468,0.0033 -0.010799,0.0067 -2.9e-4,0.01005 -0.013859,0.0178 z" id="69078 DUERNE" class="commune"/>
    <path d="m 4.7924562,46.67886 -0.020452,0.0088 -0.010793,-0.0062 -0.00596,-0.0046 -0.00269,-0.0153 0.017764,-0.01032 0.018344,0.01133 -0.00221,0.0026 0.00813,0.01086 -0.00214,0.0027 z" id="69081 ECULLY" class="commune"/>
    <path d="m 4.4398832,46.746671 -0.013153,-0.0014 -0.00179,-0.0064 0.0035,-0.0095 0.00867,-0.0076 0.00794,0.01414 -0.00517,0.01074 z" id="69098 LES LHALLES" class="commune"/>
    <path d="m 4.770728,46.649586 -0.00279,-0.01711 -0.021311,-0.019 0.00543,-0.0055 0.013976,-0.0038 0.005,-0.0023 0.015795,0.0082 0.00248,0.01264 -0.00705,0.01799 -0.00314,0.0062 -0.00839,0.0026 z" id="69116 LIMONEST" class="commune"/>
    <path d="m 4.510511,46.758728 -0.00477,-0.02269 0.015418,-0.0127 0.00982,0.0076 0.00945,-8.35e-4 0.017484,0.0056 0.00836,-0.003 0.0073,0.0073 -0.010002,0.01 -0.00408,-0.0016 -0.011791,0.0052 -0.00918,8.92e-4 -0.016331,-0.0058 -0.01169,0.01007 z" id="69138 MONTROMANT" class="commune"/>
    <path d="m 4.6100449,46.813219 -0.018745,-0.0076 0.00343,-0.0098 -0.00728,-0.0045 0.012045,-0.01011 0.037643,0.0012 0.017415,0.01135 -0.00244,0.0029 -0.028118,0.01325 -0.013952,0.0033 z" id="69170 RONTALON" class="commune"/>
    <path d="m 4.4461022,46.76398 -0.0076,0.0018 -0.0052,-0.0044 0.00949,-0.0056 -0.0029,-0.009 0.00517,-0.01074 0.00701,-0.0032 0.00831,0.0023 0.00654,0.0071 -4.93e-4,0.007 -0.00789,0.004 -0.012419,0.01093 z" id="69178 SOUZY" class="commune"/>
    <path d="m 4.6041287,46.836615 -0.0012,-0.0034 -0.020068,-0.0096 -0.00457,-8.57e-4 5.176e-4,-0.0033 0.012492,-0.01388 0.018745,0.0076 -0.00179,0.0069 0.00355,0.0063 -0.00768,0.01022 z" id="69180 SAINT-ANDRE-LA-COTE" class="commune"/>
    <path d="m 4.4785809,46.749343 -0.00454,2.1e-4 -0.00842,0.0073 -0.0071,-0.0038 0.00789,-0.004 4.93e-4,-0.007 0.00791,-0.0029 0.00401,0.0014 -2.471e-4,0.0088 z" id="69201 SAINTE-FOY-L'ARGENTIERE" class="commune"/>
    <path d="m 4.5038101,46.7627 -0.017481,-0.0051 -0.00775,-0.0082 2.471e-4,-0.0088 -0.00401,-0.0014 -0.00791,0.0029 -0.00654,-0.0071 0.02218,-0.0068 0.00936,0.0015 0.00869,-0.008 0.00483,-3.05e-4 0.00842,-0.0073 0.00927,-0.0013 -0.00196,0.01045 -0.015418,0.0127 0.00477,0.02269 -0.0067,0.004 z" id="69203 SAINT-GENIS-L'ARGENTIERE" class="commune"/>
    <path d="m 4.4450485,46.73593 -0.00794,-0.01414 -8.928e-4,-0.0067 -0.00125,-0.01026 0.010022,-0.0074 0.00556,-0.0093 0.00643,0.0049 0.00905,-0.0023 0.00403,0.0019 0.010599,0.01452 0.01409,-1.65e-4 0.01068,0.01455 -0.00483,3.05e-4 -0.00869,0.008 -0.00936,-0.0015 -0.02218,0.0068 -0.00831,-0.0023 -0.00701,0.0032 z" id="69220 SAINT-LAURENT-DE-CHAMOUSSET" class="commune"/>
    <path id="69221 SAINT-LAURENT-DE-VAUX" transform="matrix(0.01469884,0,0,0.01013192,-5.1390171,41.362759)" d="m 663.77539,526.41797 -0.44336,0.49219 0.24219,1.30664 -0.86719,1.01172 0.45313,0.41406 -0.0488,0.89844 0.28711,0.0977 -0.10742,0.29883 0.25,0.19727 1.85742,0.375 0.22075,-0.28516 1.08203,-0.77734 0.65821,-0.084 0.2246,-0.92773 1.6875,-0.75977 -2.15234,-1.43945 -0.95117,0.13867 -0.62109,-0.20703 -0.49219,-0.44531 z" class="commune1"/>
    <path d="m 4.5580201,46.840128 -0.00763,-0.01266 -0.022506,-0.0054 0.00121,-0.01018 -0.014692,-3.34e-4 -0.00141,-0.008 0.013859,-0.0178 2.9e-4,-0.01005 0.010799,-0.0067 0.013468,-0.0033 0.00192,-0.0065 -0.00561,-0.0056 0.011791,-0.0052 0.00408,0.0016 0.02025,0.003 -0.00771,0.0038 0.023369,0.02434 -0.012045,0.01011 0.00728,0.0045 -0.00343,0.0098 -0.012492,0.01388 -5.176e-4,0.0033 0.00457,8.57e-4 -0.00731,0.0039 -0.00502,0.009 -0.012511,0.0036 z" id="69227 SAINT-MARTIN-EN-HAUT" class="commune"/>
    <path d="m 4.6392233,46.841183 -0.018466,-4.66e-4 -0.016628,-0.0041 0.00768,-0.01022 0.00191,0.0031 0.00479,-1.83e-4 0.021909,-0.0064 0.00936,3.44e-4 0.00139,0.0069 -0.011945,0.01109 z" id="69237 SAINT-SORLIN" class="commune"/>
    <path d="m 4.654551,46.793743 -0.017415,-0.01135 -0.037643,-0.0012 -0.023369,-0.02434 0.00771,-0.0038 0.033051,0.0034 0.00947,-0.007 0.018636,8.2e-5 0.016595,0.02013 0.012892,0.0037 -0.011298,0.0053 -0.00863,0.01521 z" id="69249 THURINS" class="commune"/>
    <path d="m 4.644988,46.749452 -0.018636,-8.2e-5 -0.00947,0.007 -0.033051,-0.0034 -0.02025,-0.003 0.010002,-0.01 -0.0073,-0.0073 0.018422,-0.0044 0.00977,6.42e-4 0.00753,-0.0042 0.00668,0.0042 -7.15e-4,0.0091 0.00424,9.79e-4 -0.00162,0.0031 0.00369,0.002 0.027296,0.0038 0.00341,0.0015 z" id="69269 YZERON" class="commune"/>
    <path d="m 4.6067081,46.629497 -0.00737,-0.0041 6.949e-4,-0.01153 -0.00417,-0.0012 0.00765,-0.0073 0.00794,0.0036 0.0093,-2.72e-4 0.00402,0.0036 -0.0029,0.0048 -0.015165,0.01235 z" id="69010 L'ARBRESLE" class="commune"/>
    <path d="m 4.6695516,46.593606 -0.00703,-0.0032 -0.00253,-0.0056 0.00562,-0.0082 0.00441,-3.13e-4 0.00697,0.0079 -0.00744,0.0094 z" id="69020 BELMONT-D'AZERGUES" class="commune"/>
    <path d="m 4.592294,46.655809 -0.00334,-0.0015 0.00124,-0.02075 0.00915,-0.0082 0.00737,0.0041 0.0039,0.0058 0.00464,6.43e-4 -0.00931,0.01048 -0.013652,0.0094 z" id="69171 SAIN-BEL" class="commune"/>
    <path d="m 4.4333035,46.48614 -0.00435,8.64e-4 -0.00594,-0.0047 -0.00676,0.0038 -0.00438,-7.66e-4 -0.00382,-0.0057 0.010797,-0.01749 0.00952,6.42e-4 0.018583,0.01068 -0.00643,0.0093 -0.00722,0.0034 z" id="69181 SAINT-APPOLINAIRE" class="commune"/>
    <path d="m 4.6701443,46.546779 -0.021985,-0.003 -0.00901,-0.01498 0.013623,-0.0028 0.00313,-5.67e-4 0.010285,0.0022 -0.0014,0.01353 0.00536,0.0057 z" id="69004 ALIX" class="commune"/>
    <path d="m 4.4757238,46.634311 0.00161,-0.01348 0.018442,-0.02349 0.010503,0.01091 0.023119,0.0046 0.011688,0.006 0.00224,0.0062 -0.00902,-0.0012 -0.017542,0.0036 0.00101,0.0031 -0.013306,0.0038 -0.028735,-7.3e-5 z" id="69008 ANCY" class="commune"/>
    <path d="m 4.6459581,46.556134 -0.016894,-0.0015 -0.022431,-0.0063 -0.013012,-1.75e-4 0.00189,-0.01148 0.016451,-0.0079 0.00749,0.0045 0.00486,-7.05e-4 0.022389,0.01342 -7.508e-4,0.01002 z" id="69017 BAGNOLS" class="commune"/>
    <path d="m 4.5485546,46.700341 -0.023759,-0.0071 0.00422,-0.0093 -0.00243,-0.0029 -0.00954,-8.4e-4 -0.00526,-0.0057 0.020507,-0.01265 0.013886,0.0025 0.023302,-0.0027 0.015468,0.0025 -0.013244,0.01391 -0.00317,0.0067 -0.019976,0.0157 z" id="69021 BESSENAY" class="commune"/>
    <path d="m 4.5694817,46.66156 -0.023302,0.0027 -0.013886,-0.0025 -0.00448,-0.005 0.00946,-0.01173 0.00486,-5.01e-4 0.027415,0.0069 -5.48e-5,0.01009 z" id="69022 BIBOST" class="commune"/>
    <path d="m 4.6125852,46.433169 -0.00721,-0.0046 -0.014695,-6.4e-4 -0.0057,-0.0056 0.0029,-0.0028 0.00281,-0.0028 0.028795,-0.002 0.00143,0.0033 0.0194,-0.0018 0.0058,-0.01245 0.010184,-0.0057 0.015377,0.0065 0.00459,0.01202 -0.00265,0.0028 -0.041201,0.0083 -0.00918,-0.0014 -0.010659,0.0068 z" id="69023 BLACE" class="commune"/>
    <path d="m 4.5921809,46.548969 -1.31e-4,-0.0098 -0.016804,0.0038 -0.013801,-6.05e-4 -0.00466,-0.0054 0.00477,-0.0052 0.023094,-0.01282 0.0049,0.0038 0.00288,-0.0017 0.0031,0.01564 -0.00189,0.01148 -0.00144,7.36e-4 z" id="69024 LE LBOIS-D'OINGT" class="commune"/>
    <path d="m 4.5991472,46.575214 -0.015935,-0.0023 -0.012891,-0.016 0.02186,-0.0079 0.00144,-7.36e-4 0.013012,1.75e-4 -0.00454,0.01673 0.00405,0.0063 -0.007,0.0038 z" id="69026 LE LBREUIL" class="commune"/>
    <path d="m 4.4947527,46.706947 -0.01409,1.65e-4 -0.010599,-0.01452 -0.00403,-0.0019 -0.00905,0.0023 -0.00643,-0.0049 0.00979,-0.0018 0.017166,-0.012 0.00841,8.49e-4 0.00822,0.0022 0.017659,-0.0028 0.00526,0.0057 0.00954,8.4e-4 0.00243,0.0029 -0.00422,0.0093 -0.030609,0.0076 5.662e-4,0.0062 z" id="69030 BRULLIOLES" class="commune"/>
    <path d="m 4.5958708,46.612681 -0.03328,-0.007 -0.01168,-0.01822 0.020388,-0.01015 0.00993,-0.0012 0.00199,-0.0032 0.015935,0.0023 -0.00221,0.0098 0.00887,0.0071 -0.00229,0.01328 -0.00765,0.0073 z" id="69032 BULLY" class="commune"/>
    <path d="m 4.6482408,46.335255 -0.00728,-0.004 0.00722,-0.0088 0.014692,-4.89e-4 0.012917,-0.0047 0.015277,0.0016 0.00616,0.004 -0.00108,0.0028 -0.019058,0.0014 -0.00924,0.0073 -0.01961,9.02e-4 z" id="69036 CERCIE" class="commune"/>
    <path d="m 4.5463864,46.453646 -0.011041,-0.0049 -0.00214,0.0029 -0.022841,-0.0031 -0.01317,0.0029 -0.00416,-0.009 -0.013356,0.0025 -0.012253,-0.0048 0.00612,-0.0088 0.017859,-0.004 0.00457,-0.0055 0.011633,-0.0041 0.00807,9.09e-4 2.293e-4,0.0067 0.018409,0.0038 0.00613,0.005 0.00803,0.01361 -0.00209,0.0059 z" id="69037 CHAMBOST-ALLIERES" class="commune"/>
    <path d="m 4.4817228,46.490465 -0.022221,-0.0177 0.00885,-0.0018 0.00702,-0.0047 0.00147,-0.0063 0.020352,-0.0086 0.01317,-0.0029 0.022841,0.0031 0.00214,-0.0029 0.00169,0.0034 -0.00652,0.0096 -0.01453,0.01431 -0.03426,0.01445 z" id="69039 CHAMELET" class="commune"/>
    <path d="m 4.7612116,46.681466 -0.018075,5.66e-4 -0.016315,-0.0067 0.00503,-0.01065 0.020708,-0.003 0.00269,0.0153 0.00596,0.0046 z" id="69044 CHARBONNIERES-LES-BAINS" class="commune"/>
    <path d="m 4.6819827,46.3918 -0.016155,-0.0168 -0.00251,-0.01892 0.00431,-0.0052 0.022455,0.0016 0.00844,-0.0023 0.013312,0.002 0.010613,0.01003 -0.00883,0.0033 -0.00397,0.0099 -0.013214,0.01384 -0.014451,0.0025 z" id="69045 CHARENTAY" class="commune"/>
    <path d="m 4.6599938,46.584801 -0.00367,-0.002 -0.00277,-0.01283 -0.00901,-0.0074 0.00142,-0.0064 7.508e-4,-0.01002 0.00145,-0.0023 0.021985,0.003 0.00533,0.002 -0.00176,0.02148 -0.00369,0.0061 -0.00441,3.13e-4 -0.00562,0.0082 z" id="69047 CHARNAY" class="commune"/>
    <path d="m 4.636966,46.606126 -0.00956,-0.0132 -0.00328,-0.009 0.00338,-0.01181 0.00435,-0.01503 -0.00279,-0.0024 0.016894,0.0015 -0.00142,0.0064 0.00901,0.0074 0.00277,0.01283 0.00367,0.002 0.00253,0.0056 0.00703,0.0032 0.00353,9.53e-4 -0.0027,0.0019 -0.01457,-7.28e-4 -0.018845,0.01042 z" id="69050 CHATILLON" class="commune"/>
    <path d="m 4.6981742,46.593447 -0.00824,-0.0076 0.00443,-0.01341 0.017691,-0.0091 0.018034,0.0012 1.498e-4,0.0018 -0.00229,0.0089 -0.00682,0.004 -0.021938,0.01104 -0.00103,0.0031 z" id="69052 CHAZAY-D'AZERGUES" class="commune"/>
    <path d="m 4.7425092,46.573775 -0.00769,-0.0081 -0.00457,6.05e-4 -1.498e-4,-0.0018 -0.00313,-0.01982 0.00674,-0.0038 0.00646,0.009 0.023441,0.0057 -0.00824,0.01528 -0.00879,0.0025 -0.00407,3.6e-4 z" id="69055 LES LCHERES" class="commune"/>
    <path d="m 4.6275049,46.572097 -0.021361,-7.02e-4 -0.00405,-0.0063 0.00454,-0.01673 0.022431,0.0063 0.00279,0.0024 -0.00435,0.01503 z" id="69056 CHESSY" class="commune"/>
    <path class="commune" d="m 4.5889451,46.654392 -0.00399,0.0097 -0.013263,0.01391 0.015876,0.008 0.0062,0.0093 0.023771,7.13e-4 -2.94e-5,4e-5 0.00861,-0.0046 -0.013177,-0.0049 -0.010708,-0.02286 -0.00996,-0.0078 z" id="69057 CHEVINAY" />
    <path d="m 4.6998693,46.610811 -0.0017,-0.01736 0.00103,-0.0031 0.021938,-0.01104 -0.00249,0.0061 0.00847,0.01771 -0.012636,0.0056 -0.014616,0.0021 z" id="69059 CIVRIEUX-D'AZERGUES" class="commune"/>
    <path d="m 4.5407876,46.385453 -0.019874,-7e-6 -0.00941,-0.0082 -0.019559,0.0026 -0.00571,-0.0095 0.00135,-0.01018 -0.02046,-0.02349 0.00105,-0.0066 0.01798,-0.0044 0.018127,0.0031 0.018663,-0.0018 0.00716,0.0043 0.00179,0.01 0.017512,0.01914 0.00146,0.0065 -0.010074,0.01861 z" id="69060 CLAVEISOLLES" class="commune"/>
    <path d="m 4.6179939,46.473885 -0.014306,-0.0012 -0.014842,-0.0086 -0.023554,-9.22e-4 -0.00337,-0.0061 0.04413,0.0053 0.019833,-0.0096 0.00983,0.0061 0.00241,0.0055 -0.00282,0.0049 0.00319,0.0019 -0.020499,0.0025 z" id="69061 COGNY" class="commune"/>
    <path d="m 4.7427958,46.310097 -0.02258,0.0048 -0.00904,-0.0076 -0.00828,-1.6e-5 -0.00278,-0.0064 0.00391,-0.01643 0.022633,0.005 0.020928,-0.0075 0.00247,0.0026 -0.00726,0.02561 z" id="69065 CORCELLES-EN-BEAUJOLAIS" class="commune"/>
    <path d="m 4.7318536,46.664637 6.362e-4,-0.0067 -0.00678,-0.0094 0.00284,-0.01008 -0.00656,-0.0094 0.012758,-0.0046 0.00127,-0.0097 0.010608,-0.0013 0.021311,0.019 0.00279,0.01711 -4.024e-4,0.0017 -0.017764,0.01032 -0.020708,0.003 z" id="69072 DARDILLY" class="commune"/>
    <path d="m 4.5260443,46.547346 -0.01213,0.0058 -0.030148,9.96e-4 -0.032521,-0.0078 -2.532e-4,-1.83e-4 0.010986,-0.0066 0.028788,0.0014 0.00371,-0.0022 0.031568,0.0086 z" id="69073 DAREIZE" class="commune"/>
    <path d="m 4.6357191,46.45908 -0.00983,-0.0061 -0.00728,-0.0095 0.00885,-1.71e-4 0.00118,-0.0062 0.042128,-3.51e-4 0.00832,0.01236 0.00143,0.0064 -0.00358,0.0023 -0.019079,0.0015 -0.011059,-0.004 -0.011074,0.0039 z" id="69074 DENICE" class="commune"/>
    <path d="m 4.4788479,46.511917 -0.00987,-0.0059 -0.00379,0.0015 -0.031886,-0.02143 0.00722,-0.0034 0.00643,-0.0093 0.0062,-0.0033 0.00635,0.0026 0.022221,0.0177 0.00145,8.84e-4 -0.00482,0.0093 0.00412,0.0053 -0.00362,0.006 z" id="69075 DIEME" class="commune"/>
    <path d="m 4.7219931,46.629079 -0.00541,-0.005 -0.021528,0.0029 -0.00742,-0.01294 0.012239,-0.0032 0.014616,-0.0021 0.012636,-0.0056 0.00732,-0.0025 0.00158,0.01421 -0.00127,0.0097 -0.012758,0.0046 z" id="69076 DOMMARTIN" class="commune"/>
    <path d="m 4.615254,46.635933 -0.00464,-6.43e-4 -0.0039,-0.0058 0.015165,-0.01235 0.00873,0.0027 0.00568,0.0088 -0.00442,0.007 -0.016611,2.48e-4 z" id="69083 EVEUX" class="commune"/>
    <path d="m 4.6362851,46.628652 -0.00568,-0.0088 -0.00873,-0.0027 0.0029,-0.0048 0.00837,-9.51e-4 0.00383,-0.0052 0.018845,-0.01042 0.01457,7.28e-4 0.00503,0.0126 -0.00729,0.01577 -0.031833,0.0038 z" id="69086 FLEURIEUX-SUR-L'ARBRESLE" class="commune"/>
    <path d="m 4.6467089,46.546111 -0.022389,-0.01342 -0.00486,7.05e-4 -0.00749,-0.0045 0.00136,-0.0063 0.037682,2.47e-4 0.00176,0.0031 -0.013623,0.0028 0.00901,0.01498 -0.00145,0.0023 z" id="69090 FRONTENAS" class="commune"/>
    <path d="m 4.6840026,46.477892 -0.00723,-0.0038 -0.018407,-9.47e-4 -5.095e-4,-0.01397 0.019079,-0.0015 0.00358,-0.0023 -0.00143,-0.0064 0.037824,-0.0064 0.00227,0.0098 -0.00941,-2.96e-4 -0.00344,0.0062 0.00185,0.0067 -0.010066,0.0071 -0.00358,0.005 -0.010525,7.26e-4 z" id="69092 GLEIZE" class="commune"/>
    <path d="m 4.4674255,46.440113 -0.015469,-0.007 -0.013385,0.0022 -0.00753,-0.0032 -0.00723,-0.007 0.013903,-0.01004 1.963e-4,-0.007 0.010772,-0.01124 0.013125,0.0012 0.015139,0.0066 0.00564,0.0091 0.00908,0.0023 0.0043,0.006 -0.00457,0.0055 -0.017859,0.004 -0.00612,0.0088 z" id="69093 GRANDRIS" class="commune"/>
    <path d="m 4.6228503,46.496706 -0.00471,-0.01188 0.00371,-0.0092 -0.00385,-0.0017 0.020499,-0.0025 0.00131,0.003 0.0085,0.0018 -6.842e-4,0.01164 -0.00943,1.15e-4 -0.0083,0.0073 -0.00703,0.0016 z" id="69101 JARNIOUX" class="commune"/>
    <path d="m 4.6482988,46.476124 -0.0085,-0.0018 -0.00131,-0.003 -0.00319,-0.0019 0.00282,-0.0049 -0.00241,-0.0055 0.011074,-0.0039 0.011059,0.004 5.095e-4,0.01397 -0.010063,0.003 z" id="69105 LACENAS" class="commune"/>
    <path d="m 4.6881681,46.535409 -0.00523,-0.0051 -0.016759,-0.0027 -0.010285,-0.0022 0.00355,-0.0078 0.027076,0.004 0.00886,-0.0022 0.00378,0.0091 -0.011002,0.0069 z" id="69106 LACHASSAGNE" class="commune"/>
    <path d="m 4.4959716,46.421861 -0.0043,-0.006 -0.00908,-0.0023 -0.00564,-0.0091 0.011728,-0.0056 -0.0029,-0.0099 0.00616,-0.0092 0.019559,-0.0026 0.00941,0.0082 0.019874,7e-6 -2.115e-4,6.19e-4 -0.00428,0.01783 -0.013034,0.01199 -0.00759,0.0028 -0.00807,-9.09e-4 -0.011633,0.0041 z" id="69107 LAMURE-SUR-AZERGUES" class="commune"/>
    <path d="m 4.6203466,46.318038 -0.018033,-0.0085 0.010395,-0.02964 -0.00128,-0.01028 0.00294,0.0011 0.016956,0.01626 0.00399,0.0098 -0.01496,0.0212 z" id="69109 LANTIGNIE" class="commune"/>
    <path d="m 4.5703212,46.556859 -0.00818,-3.74e-4 -0.00423,-0.005 -0.00146,-0.0053 0.005,-0.0038 0.013801,6.05e-4 0.016804,-0.0038 1.31e-4,0.0098 -0.02186,0.0079 z" id="69111 LEGNY" class="commune"/>
    <path d="m 4.6924039,46.661778 -0.013472,-0.0024 -0.021678,0.0016 -0.00128,-0.0065 -0.018855,-0.0099 -0.00525,-0.0089 0.00442,-0.007 0.031833,-0.0038 0.00729,-0.01577 0.012218,0.005 0.00742,0.01294 -0.00161,0.01345 0.013215,0.01749 -0.014255,0.0038 z" id="69112 LENTILLY" class="commune"/>
    <path d="m 4.5494701,46.482735 -0.00645,0.0092 -0.014323,0.0094 -0.00754,-0.0044 -0.028362,0.0016 -0.00963,-0.0072 -0.00145,-8.84e-4 0.03426,-0.01445 0.01453,-0.01431 0.00652,-0.0096 -0.00169,-0.0034 0.011041,0.0049 0.00317,-2.98e-4 0.00441,0.0234 -0.0045,0.006 z" id="69113 LETRA" class="commune"/>
    <path d="m 4.6627913,46.502699 -0.00216,-6.72e-4 -0.00515,-0.0128 -0.00322,-0.0026 -0.00465,0.0011 6.842e-4,-0.01164 0.010063,-0.003 0.018407,9.47e-4 0.00723,0.0038 -0.021211,0.02481 z" id="69114 LIERGUES" class="commune"/>
    <path d="m 4.7360214,46.614775 -0.00158,-0.01421 0.00806,-0.02679 0.00407,-3.6e-4 0.00759,0.02004 0.011864,0.01075 -0.013976,0.0038 -0.00543,0.0055 -0.010608,0.0013 z" id="69117 LISSIEU" class="commune"/>
    <path d="m 4.6876305,46.614059 -0.012218,-0.005 -0.00503,-0.0126 0.0027,-0.0019 -0.00353,-9.53e-4 0.00744,-0.0094 0.012946,0.0016 0.00824,0.0076 0.0017,0.01736 -0.012239,0.0032 z" id="69121 LOZANNE" class="commune"/>
    <path d="m 4.5840127,46.365873 -0.00817,-0.0016 -0.011897,0.0046 -0.01308,-0.002 -0.00146,-0.0065 -0.017512,-0.01914 -0.00179,-0.01 0.016127,-0.01292 0.017593,0.0064 0.01459,-0.0019 0.00718,0.02263 0.00633,0.0049 -0.00791,0.01559 z" id="69124 MARCHAMPT" class="commune"/>
    <path d="m 4.7271214,46.603109 -0.00847,-0.01771 0.00249,-0.0061 0.00682,-0.004 0.00229,-0.0089 0.00457,-6.05e-4 0.00769,0.0081 -0.00806,0.02679 -0.00732,0.0025 z" id="69125 MARCILLY-D'AZERGUES" class="commune"/>
    <path d="m 4.6754779,46.548731 -0.00533,-0.002 -0.00536,-0.0057 0.0014,-0.01353 0.016759,0.0027 0.00523,0.0051 -0.00236,0.01147 -0.010326,0.0019 z" id="69126 MARCY" class="commune"/>
    <path d="m 4.7119667,46.678213 -0.016887,-0.0063 -0.00268,-0.01013 0.014255,-0.0038 0.01311,-0.0025 0.012085,0.0092 -0.00503,0.01065 -0.014855,0.0029 z" id="69127 MARCY-L'ETOILE" class="commune"/>
    <path d="m 4.5955148,46.536749 -0.0031,-0.01564 1.006e-4,-8e-4 0.00681,-0.0035 0.013992,0.0058 -0.00136,0.0063 -0.016451,0.0079 z" id="69134 MOIRE" class="commune"/>
    <path d="m 4.6186038,46.443478 -0.02755,-0.0047 -0.014393,-0.01335 0.011223,-0.0058 -0.0029,0.0028 0.0057,0.0056 0.014695,6.4e-4 0.00721,0.0046 0.00182,0.0031 0.014222,7.98e-4 -0.00118,0.0062 -0.00885,1.71e-4 z" id="69137 MONTMELAS-SAINT-SORLIN" class="commune"/>
    <path d="m 4.4603358,46.686249 -0.014326,-0.01413 -6.171e-4,-0.01381 -0.00672,-0.0093 -0.00696,-0.01923 0.00884,-0.01147 0.00896,-0.0022 0.00694,0.0085 0.019273,0.0096 0.00431,0.0061 0.015243,0.0083 0.00486,0.0097 5.511e-4,0.0034 -0.014777,0.01329 -0.00841,-8.49e-4 -0.017166,0.012 z" id="69139 MONTROTTIER" class="commune"/>
    <path d="m 4.6943735,46.572395 -0.020657,-0.0022 0.00176,-0.02148 0.010326,-0.0019 0.0232,0.0016 0.017961,-0.0038 0.00313,0.01982 -0.018034,-0.0012 -0.017691,0.0091 z" id="69140 MORANCE" class="commune"/>
    <path class="commune1" d="m 662.98828,514.08398 -0.47656,0.375 -0.15039,0.9668 0.60351,0.70117 -0.15625,1.31055 0.54102,0.35547 0.63086,-0.0273 0.002,0 0.27344,0.35547 0,-0.008 0.56836,-0.0957 0.26172,-0.51172 -0.65039,-1.30078 -0.22461,-0.88672 0.23047,-1.16602 z m 0.99414,3.68164 -0.002,0 0.002,0.004 z" transform="matrix(0.01469884,0,0,0.01013192,-5.1390171,41.362759)" id="69144 NUELLES" />
    <path d="m 4.6658276,46.374998 -0.021264,-0.0048 -0.027909,-0.0087 0.00597,-0.0089 0.019479,-0.0097 0.00466,8.69e-4 0.020866,0.0071 -0.00431,0.0052 0.00251,0.01892 z" id="69145 ODENAS" class="commune"/>
    <path d="m 4.592418,46.521114 -0.00288,0.0017 -0.0049,-0.0038 -0.00963,-0.01613 0.00903,-0.01226 -0.0032,-0.0097 0.00731,0.0048 0.00546,0.01696 -0.0011,0.01758 -1.006e-4,8e-4 z" id="69146 OINGT" class="commune"/>
    <path d="m 4.5383366,46.575171 -0.020025,-4.77e-4 -0.013315,-0.0073 0.00262,-0.0023 0.026323,-0.0056 0.0044,0.01565 z" id="69147 LES LOLMES" class="commune"/>
    <path d="m 4.6187326,46.40176 -0.0048,-0.001 -0.00412,-0.006 -0.0094,-0.0024 -0.019868,-0.0011 -0.019248,0.003 -0.014307,-0.0028 -0.00642,-0.0054 2.115e-4,-6.19e-4 0.010074,-0.01861 0.01308,0.002 0.011897,-0.0046 0.00817,0.0016 0.00776,0.0068 0.03379,0.01716 0.00784,0.0056 -0.0081,-9.18e-4 -0.00658,0.0072 z" id="69151 LE LPERREON" class="commune"/>
    <path d="m 4.6437402,46.704057 -0.00724,-0.0045 -0.018808,-0.0031 -1.692e-4,-3.72e-4 0.00862,-0.0046 0.0137,-0.01718 0.017414,-0.01323 0.021678,-0.0016 -2.362e-4,0.02005 0.01504,0.01279 0.00369,0.0023 -0.00307,0.0027 -0.029043,9e-5 -0.021573,0.0068 z" id="69154 POLLIONNAY" class="commune"/>
    <path d="m 4.7215434,46.489841 -0.04254,0.02109 -0.015808,-0.0071 -4.045e-4,-0.0011 0.021211,-0.02481 0.010525,-7.26e-4 0.00828,0.0083 0.018735,0.0043 z" id="69156 POMMIERS" class="commune"/>
    <path d="m 4.498503,46.588533 -0.027866,-0.01809 0.036976,-0.0054 -0.00262,0.0023 0.013315,0.0073 -0.011901,0.0056 -0.00791,0.0082 z" id="69157 PONTCHARRA-SUR-TURDINE" class="commune"/>
    <path d="m 4.6606294,46.502027 -0.017099,0.0053 -0.00755,-0.0037 -0.0061,-0.0084 0.0083,-0.0073 0.00943,-1.15e-4 0.00465,-0.0011 0.00322,0.0026 0.00515,0.0128 z" id="69159 POUILLY-LE-MONIAL" class="commune"/>
    <path d="m 4.5917762,46.372674 -0.00776,-0.0068 0.00791,-0.01559 -0.00633,-0.0049 -0.00718,-0.02263 0.014849,-0.01263 0.00906,-5.3e-4 0.018033,0.0085 0.020619,0.0132 0.00728,0.004 -0.00147,0.0086 -0.00466,-8.69e-4 -0.019479,0.0097 -0.00597,0.0089 -0.012218,0.0088 -0.012661,0.0023 z" id="69162 QUINCIE-EN-BEAUJOLAIS" class="commune"/>
    <path d="m 4.6258852,46.452958 -0.019833,0.0096 -0.04413,-0.0053 -0.012362,-0.0038 -0.00317,2.98e-4 0.00209,-0.0059 -0.00803,-0.01361 0.0218,-0.007 0.014417,-0.0018 0.014393,0.01335 0.02755,0.0047 0.00728,0.0095 z" id="69167 RIVOLET" class="commune"/>
    <path d="m 4.6461223,46.403758 -0.0058,0.01245 -0.0194,0.0018 -0.00143,-0.0033 -0.00313,-0.0023 0.00497,-0.0047 -0.0026,-0.006 0.00658,-0.0072 0.0081,9.18e-4 0.012714,0.0083 z" id="69172 SALLES-ARBUISSONNAS-EN-BEAUJOLAIS" class="commune"/>
    <path d="m 4.5509108,46.587484 -0.012574,-0.01231 -0.0044,-0.01565 -0.00185,-0.01017 0.025819,0.0021 0.00423,0.005 0.00818,3.74e-4 0.012891,0.016 -0.00199,0.0032 -0.00993,0.0012 -0.020388,0.01015 z" id="69173 SARCEY" class="commune"/>
    <path d="m 4.5849493,46.664072 -0.015468,-0.0025 5.48e-5,-0.01009 -0.027415,-0.0069 -0.00936,-0.0067 -0.012716,-0.0013 -0.00228,-0.0059 -0.00101,-0.0031 0.017542,-0.0036 0.00902,0.0012 -0.00224,-0.0062 0.00949,7.42e-4 0.012016,-0.01392 0.03328,0.007 0.00417,0.0012 -6.949e-4,0.01153 -0.00915,0.0082 -0.00124,0.02075 -0.004,0.0097 z" id="69175 SAVIGNY" class="commune"/>
    <path d="m 4.6398406,46.674188 -0.019708,-0.01005 -0.014187,-0.01773 0.00931,-0.01048 0.016611,-2.48e-4 0.00525,0.0089 0.018855,0.0099 0.00128,0.0065 -0.017414,0.01323 z" id="69177 SOURCIEUX-LES-MINES" class="commune"/>
    <path d="m 4.4509918,46.546142 -0.024724,-0.01026 -0.00346,-0.0062 0.015296,-0.0071 0.00162,-0.0061 0.025473,-0.0089 0.00379,-0.0015 0.00987,0.0059 0.015629,0.02681 -0.00371,0.0022 -0.028788,-0.0014 -0.010986,0.0066 z" id="69188 SAINT-CLEMENT-SUR-VALSONNE" class="commune"/>
    <path d="m 4.6937363,46.692223 -0.01504,-0.01279 2.362e-4,-0.02005 0.013472,0.0024 0.00268,0.01013 0.016887,0.0063 -1.316e-4,0.0051 0.00334,0.001 -0.00906,0.0071 -0.012378,8.13e-4 z" id="69190 SAINTE-CONSORCE" class="commune"/>
    <path d="m 4.5404439,46.434183 -0.00613,-0.005 -0.018409,-0.0038 -2.293e-4,-0.0067 0.00759,-0.0028 0.013034,-0.01199 0.025511,0.01992 4.332e-4,0.0034 -0.0218,0.007 z" id="69192 SAINT-CYR-LE-CHATOUX" class="commune"/>
    <path d="m 4.5300952,46.331242 -0.00716,-0.0043 -0.023888,-0.01886 0.00665,-0.0039 -0.00234,-0.0058 0.00407,-0.0054 0.013351,0.0051 0.01016,10e-6 0.016252,-0.0083 0.00151,-0.007 0.021144,0.0041 -0.010524,0.02185 -0.013099,0.0096 -0.016127,0.01292 z" id="69196 SAINT-DIDIER-SUR-BEAUJEU" class="commune"/>
    <path d="m 4.6716827,46.4046 -0.015377,-0.0065 -0.010184,0.0057 -0.012714,-0.0083 -0.00784,-0.0056 0.020051,-0.01326 -0.00105,-0.0063 0.021264,0.0048 0.016155,0.0168 0.00116,0.0062 -0.011456,0.0066 z" id="69197 SAINT-ETIENNE-DES-OULLIERES" class="commune"/>
    <path d="m 4.625566,46.389834 -0.03379,-0.01716 0.012661,-0.0023 0.012218,-0.0088 0.027909,0.0087 0.00105,0.0063 -0.020051,0.01326 z" id="69198 SAINT-ETIENNE-LA-VARENNE" class="commune"/>
    <path d="m 4.4757238,46.634311 -0.019273,-0.0096 -0.00694,-0.0085 -0.00896,0.0022 -0.0023,-0.01347 -0.019256,-0.01546 0.036076,-0.0086 -0.00176,-0.0067 0.00959,-0.0076 0.00207,-2.8e-4 0.00567,0.0042 0.027866,0.01809 -0.00273,0.0088 -0.018442,0.02349 -0.00161,0.01348 z" id="69200 SAINT-FORGEUX" class="commune"/>
    <path d="m 4.6947936,46.340543 0.00135,-0.01482 0.00108,-0.0028 -0.00616,-0.004 0.00757,-0.003 0.00426,-0.0086 0.00828,1.6e-5 0.00904,0.0076 0.02258,-0.0048 0.011967,2.02e-4 -0.00914,0.0018 -0.00184,0.0031 0.00713,0.01249 -9.945e-4,0.01291 -0.036847,-0.004 -0.018279,0.0039 z" id="69211 SAINT-JEAN-D'ARDIERES" class="commune"/>
    <path d="m 4.6899391,46.585803 -0.012946,-0.0016 -0.00697,-0.0079 0.00369,-0.0061 0.020657,0.0022 -0.00443,0.01341 z" id="69212 SAINT-JEAN-DES-VIGNES" class="commune"/>
    <path d="m 4.6286302,46.437065 -0.014222,-7.98e-4 -0.00182,-0.0031 0.010659,-0.0068 0.00918,0.0014 0.041201,-0.0083 0.00265,-0.0028 0.00668,0.0022 -0.00146,0.0067 -0.010737,0.01122 -0.042128,3.51e-4 z" id="69215 SAINT-JULIEN" class="commune"/>
    <path d="m 4.5117863,46.674426 -0.017659,0.0028 -0.00822,-0.0022 0.014777,-0.01329 -5.511e-4,-0.0034 -0.00486,-0.0097 -0.015243,-0.0083 -0.00431,-0.0061 0.028735,7.3e-5 0.013306,-0.0038 0.00228,0.0059 0.012716,0.0013 0.00936,0.0067 -0.00486,5.01e-4 -0.00946,0.01173 0.00448,0.005 -0.020507,0.01265 z" id="69216 SAINT-JULIEN-SUR-BIBOST" class="commune"/>
    <path d="m 4.4469519,46.47348 -0.018583,-0.01068 -0.00952,-6.42e-4 -3.227e-4,-0.01305 0.00901,-0.01492 0.00351,-0.0021 0.00753,0.0032 0.013385,-0.0022 0.015469,0.007 0.012253,0.0048 0.013356,-0.0025 0.00416,0.009 -0.020352,0.0086 -0.00147,0.0063 -0.00702,0.0047 -0.00885,0.0018 -0.00635,-0.0026 -0.0062,0.0033 z" id="69217 SAINT-JUST-D'AVRAY" class="commune"/>
    <path d="m 4.6985238,46.350155 -0.00844,0.0023 -0.022455,-0.0016 -0.020866,-0.0071 0.00147,-0.0086 0.01961,-9.02e-4 0.00924,-0.0073 0.019058,-0.0014 -0.00135,0.01482 0.00373,0.0096 z" id="69218 SAINT-LAGER" class="commune"/>
    <path d="m 4.561549,46.531843 -0.0092,7.2e-4 -0.01452,-0.01239 0.012094,-0.01376 0.02443,-0.01138 0.00304,-0.01669 0.00345,0.0026 0.0032,0.0097 -0.00903,0.01226 0.00963,0.01613 -0.023094,0.01282 z" id="69222 SAINT-LAURENT-D'OINGT" class="commune"/>
    <path d="m 4.4706371,46.570443 -0.00567,-0.0042 -0.011943,-0.0044 -0.00178,-0.01558 0.032521,0.0078 0.030148,-9.96e-4 0.01213,-0.0058 0.00605,0.002 0.00185,0.01017 -0.026323,0.0056 -0.036976,0.0054 z" id="69223 SAINT-LOUP" class="commune"/>
    <path d="m 4.47695,46.404562 -0.015139,-0.0066 -0.013125,-0.0012 -0.0074,-0.006 0.00317,-0.0066 -0.00188,-0.01752 -0.00991,-0.01617 -0.00114,-0.01573 0.022239,0.0029 0.011476,0.0052 0.00188,-0.0063 0.02046,0.02349 -0.00135,0.01018 0.00571,0.0095 -0.00616,0.0092 0.0029,0.0099 -0.011728,0.0056 z" id="69229 SAINT-NIZIER-D'AZERGUES" class="commune"/>
    <path d="m 4.5499273,46.506411 0.00618,-0.01536 -0.00664,-0.0083 0.0045,-0.006 -0.00441,-0.0234 0.012362,0.0038 0.00337,0.0061 0.012101,0.01509 -0.00304,0.01669 -0.02443,0.01138 z" id="69230 SAINTE-PAULE" class="commune"/>
    <path d="m 4.6261411,46.691373 -0.013188,-0.0049 -0.010701,-0.02285 -0.00996,-0.0078 0.013652,-0.0094 0.014187,0.01773 0.019708,0.01005 -0.0137,0.01718 z" id="69231 SAINT-PIERRE-LA-PALUD" class="commune"/>
    <path d="m 4.5625904,46.605704 -0.012016,0.01392 -0.00949,-7.42e-4 -0.011688,-0.006 -0.023119,-0.0046 -0.010503,-0.01091 0.00273,-0.0088 0.00791,-0.0082 0.011901,-0.0056 0.020025,4.77e-4 0.012574,0.01231 0.01168,0.01822 z" id="69234 SAINT-ROMAIN-DE-POPEY" class="commune"/>
    <path d="m 4.5579095,46.551482 -0.025819,-0.0021 -0.00605,-0.002 -0.031568,-0.0086 -0.015629,-0.02681 0.00362,-0.006 0.055364,0.01425 0.01452,0.01239 0.0092,-7.2e-4 -0.00477,0.0052 0.00466,0.0054 -0.005,0.0038 0.00146,0.0053 z" id="69239 SAINT-VERAND" class="commune"/>
    <path d="m 4.537833,46.52017 -0.055364,-0.01425 -0.00412,-0.0053 0.00482,-0.0093 0.00963,0.0072 0.028362,-0.0016 0.00754,0.0044 0.014323,-0.0094 0.00645,-0.0092 0.00664,0.0083 -0.00618,0.01536 -0.012094,0.01376 z" id="69245 TERNAND" class="commune"/>
    <path d="m 4.6527712,46.525943 -0.00176,-0.0031 -0.037682,-2.47e-4 -0.013992,-0.0058 -0.00681,0.0035 0.0011,-0.01758 0.014289,1.67e-4 0.00563,-0.0054 0.00931,-7.95e-4 0.00703,-0.0016 0.0061,0.0084 0.00755,0.0037 0.017099,-0.0053 0.00216,6.72e-4 4.045e-4,0.0011 -0.00375,0.01378 -0.00355,0.0078 -0.00313,5.67e-4 z" id="69246 THEIZE" class="commune"/>
    <path d="m 4.7318536,46.664637 -0.012085,-0.0092 -0.01311,0.0025 -0.013215,-0.01749 0.00161,-0.01345 0.021528,-0.0029 0.00541,0.005 0.00656,0.0094 -0.00284,0.01008 0.00678,0.0094 -6.362e-4,0.0067 z" id="69250 LA LTOUR-DE-SALVAGNY" class="commune"/>
    <path d="m 4.5622436,46.427231 -4.332e-4,-0.0034 -0.025511,-0.01992 0.00428,-0.01783 0.00642,0.0054 0.014307,0.0028 0.019248,-0.003 0.019868,0.0011 0.0094,0.0024 0.00412,0.006 0.0048,10e-4 0.0026,0.006 -0.00497,0.0047 0.00313,0.0023 -0.028795,0.002 -0.00281,0.0028 -0.011223,0.0058 -0.014417,0.0018 z" id="69257 VAUX-EN-BEAUJOLAIS" class="commune"/>
    <path d="m 4.5487014,46.282777 -0.00151,0.007 -0.016252,0.0083 -0.01016,-10e-6 -0.013351,-0.0051 0.00265,-0.01375 0.015001,-0.0014 0.023621,0.0051 z" id="69261 VERNAY" class="commune"/>
    <path d="m 4.5936207,46.502739 -0.00546,-0.01696 -0.00731,-0.0048 -0.00345,-0.0026 -0.012101,-0.01509 0.023554,9.22e-4 0.014842,0.0086 0.014306,0.0012 0.00385,0.0017 -0.00371,0.0092 0.00471,0.01188 -0.00931,7.95e-4 -0.00563,0.0054 -0.014289,-1.67e-4 z" id="69265 VILLE-SUR-JARNIOUX" class="commune"/>
    <path d="m 4.9095531,46.734232 -0.022564,-0.008 0.0053,-0.01307 0.00673,-0.01343 0.018577,0.0042 0.014983,0.0042 0.00338,0.01799 -0.026403,0.0082 z" id="69029 BRON" class="commune"/>
    <path d="m 4.7666355,46.895037 -0.010676,-0.01916 -0.013245,0.004 -0.00834,-0.0037 -0.00868,0.0024 -0.012909,-5.85e-4 -0.00254,-0.01354 0.00983,-0.0067 0.013549,0.0041 0.014718,-0.0021 0.00634,-0.0054 0.00349,-0.01 0.00514,-0.0039 0.00145,0.0025 0.014435,0.01885 -0.00206,0.0031 0.00402,0.0063 0.027292,0.0087 -0.041807,0.01523 z" id="69091 GIVORS" class="commune"/>
    <path d="m 4.7791929,46.861693 -0.014435,-0.01885 0.00902,-0.0025 0.01934,-0.0103 0.014702,-9.18e-4 -0.00887,0.01667 -0.011329,0.01187 -0.00843,0.004 z" id="69096 GRIGNY" class="commune"/>
    <path d="m 4.8285909,46.798111 -0.021225,-0.008 -0.00458,0.0011 3.992e-4,-0.0056 -0.00806,-0.0018 -0.00314,0.002 6.657e-4,-0.0067 0.024833,-0.01636 0.0031,-0.0063 0.017554,0.004 -0.00208,0.0047 -0.00606,0.02615 -0.0014,0.0067 z" id="69100 IRIGNY" class="commune"/>
    <path d="m 4.8053388,46.748628 -0.026901,-0.01615 0.00168,-0.0032 0.022755,-1.79e-4 0.017802,0.0042 0.00237,0.0043 -0.0018,0.006 -0.015902,0.0051 z" id="69149 OULLINS" class="commune"/>
    <path d="m 4.8381346,46.760562 -0.017554,-0.004 -0.011653,-0.0025 -0.00359,-0.0054 0.015902,-0.0051 0.0018,-0.006 0.0175,0.0066 0.00351,0.0089 -0.00592,0.0076 z" id="69152 PIERRE-BENITE" class="commune"/>
    <path d="m 4.861673,46.76384 -0.00877,0.0016 -0.00532,0.0049 -0.011539,-0.0051 0.00208,-0.0047 0.00592,-0.0076 -0.00351,-0.0089 -9.816e-4,-0.0099 0.00962,-0.0011 5.406e-4,-1.8e-5 0.014508,0.0087 0.00106,0.0068 -0.00647,0.0052 0.00286,0.01007 z" id="69199 SAINT-FONS" class="commune"/>
    <path d="m 4.8865211,46.780646 -0.015658,-0.01609 -0.00919,-7.19e-4 -0.00286,-0.01007 0.00647,-0.0052 -0.00106,-0.0068 -0.014508,-0.0087 0.00464,-8.16e-4 0.00181,-0.0096 0.026144,0.0077 0.00464,-7.78e-4 2.43e-5,-0.0034 0.022564,0.008 -0.013795,0.01341 0.015881,0.01625 -0.018715,0.0038 -0.0064,0.01293 z" id="69259 VENISSIEUX" class="commune"/>
    <path d="m 4.8574623,46.790116 -0.00891,0.0026 -0.018557,-0.0013 0.00606,-0.02615 0.011539,0.0051 0.00532,-0.0049 0.00877,-0.0016 0.00919,7.19e-4 0.015658,0.01609 0.00145,0.007 -0.030505,0.0025 z" id="69276 FEYZIN" class="commune"/>
    <path d="m 4.9693939,46.775544 -0.016698,-0.006 -0.018616,-8.88e-4 -0.00822,8.86e-4 -0.014224,-0.0056 -0.015881,-0.01625 0.013795,-0.01341 0.026403,-0.0082 0.027862,0.006 0.00979,-5.95e-4 0.00345,0.0065 0.023005,0.006 -0.01007,0.02009 0.00107,0.01066 -0.014019,-0.0036 -0.00765,0.0044 z" id="69290 SAINT-PRIEST" class="commune"/>
    <path d="m 4.7514694,46.793498 -0.012567,-0.01373 -0.013478,-0.0028 0.00339,-0.01586 0.035447,0.0016 0.00933,0.0016 0.00765,0.01511 -0.012874,0.0036 -0.016893,0.01055 z" id="69027 BRIGNAIS" class="commune"/>
    <path d="m 4.709991,46.753689 -0.00226,-0.0012 -0.03733,-0.01609 0.00331,-0.0094 0.024785,-0.0077 0.013482,-0.0026 0.015586,-0.0024 -9.919e-4,0.0029 0.00913,0.0095 -0.0189,0.01063 -0.0068,0.01628 z" id="69028 BRINDAS" class="commune"/>
    <path d="m 4.7642572,46.762632 -0.035447,-0.0016 -0.018819,-0.0074 0.0068,-0.01628 0.0189,-0.01063 0.036079,-0.0034 0.00835,0.0059 -0.00168,0.0032 -0.010475,0.01434 -0.00371,0.01582 z" id="69043 CHAPONOST" class="commune"/>
    <path d="m 4.7959411,46.815167 -0.013174,-0.0012 -0.013959,-0.012 0.00923,-0.0019 0.011516,-0.0098 -5.081e-4,-0.0034 0.00293,-9.71e-4 0.00314,-0.002 0.00806,0.0018 -3.992e-4,0.0056 -0.00525,0.0057 0.00477,0.01334 -0.00636,0.0049 z" id="69046 CHARLY" class="commune"/>
    <path d="m 4.7581678,46.844258 -0.00349,0.01 -0.00634,0.0054 -0.014718,0.0021 -0.013549,-0.0041 -0.00589,-0.0086 -0.00818,-0.0028 -0.00195,-0.0087 0.00623,-0.0042 0.00165,-10e-4 0.00739,0.0027 0.010689,-0.0036 0.00522,0.0059 0.022946,0.0069 z" id="69048 CHASSAGNY" class="commune"/>
    <path d="m 4.71197,46.716736 -0.00312,-0.01487 0.00719,-0.0037 0.00931,0.0018 0.018545,-0.0034 2.352e-4,0.0031 0.0082,0.0023 -0.024782,0.01243 -0.015586,0.0024 z" id="69069 CRAPONNE" class="commune"/>
    <path d="m 4.7356943,46.726782 -0.00913,-0.0095 9.919e-4,-0.0029 0.024782,-0.01243 0.019369,-5.71e-4 0.00576,0.0037 0.00325,0.01 -0.00895,0.0083 -0.036079,0.0034 z" id="69089 FRANCHEVILLE" class="commune"/>
    <path d="m 4.6984877,46.719334 -0.031637,-0.01458 -0.013988,0.0014 -0.00912,-0.0021 0.021573,-0.0068 0.029043,-9e-5 0.00307,-0.0027 -0.00369,-0.0023 0.012378,-8.13e-4 0.00759,0.0017 0.00234,0.0051 -0.00719,0.0037 0.00312,0.01487 -0.013482,0.0026 z" id="69094 GREZIEU-LA-VARENNE" class="commune"/>
    <path d="m 4.6744748,46.773277 -0.012892,-0.0037 -0.016595,-0.02013 -0.00341,-0.0015 0.00327,-0.0029 0.015856,-0.0079 0.00969,-8.57e-4 0.03733,0.01609 -0.00901,0.0013 -0.024241,0.01949 z" id="69131 MESSIMY" class="commune"/>
    <path d="m 4.7737813,46.840378 -0.016169,-0.02189 -5.77e-5,-0.0071 0.011254,-0.0094 0.013959,0.012 0.013174,0.0012 0.00572,0.0033 0.00622,-4.95e-4 -5.55e-4,0.0052 4.989e-4,0.006 -0.014702,9.18e-4 -0.01934,0.0103 z" id="69133 MILLERY" class="commune"/>
    <path d="m 4.7581678,46.844258 -0.022946,-0.0069 -0.00522,-0.0059 0.018573,-0.03048 0.00428,0.0096 0.0047,8.3e-4 5.77e-5,0.0071 0.016169,0.02189 -0.00902,0.0025 -0.00145,-0.0025 -0.00514,0.0039 z" id="69136 MONTAGNY" class="commune"/>
    <path d="m 4.6655906,46.863546 -9.976e-4,-0.01035 -0.020313,-0.01029 -0.00506,-0.0017 0.011945,-0.01109 -0.00139,-0.0069 0.00358,-0.002 0.00233,-0.01269 0.020757,0.01379 0.019608,0.0015 0.014223,0.0096 -0.00623,0.0042 0.00195,0.0087 -0.019096,0.003 -0.021319,0.01428 z" id="69141 MORNANT" class="commune"/>
    <path d="m 4.7064104,46.808514 -0.016522,-0.01867 0.026229,-0.0149 0.00931,0.002 0.013478,0.0028 0.012567,0.01373 -0.00289,0.0075 -0.022788,-2.53e-4 -0.019376,0.0078 z" id="69148 ORLIENAS" class="commune"/>
    <path d="m 4.653701,46.798549 -0.00159,-0.0019 0.00244,-0.0029 0.00863,-0.01521 0.011298,-0.0053 0.024241,-0.01949 0.00901,-0.0013 0.00226,0.0012 0.018819,0.0074 -0.00339,0.01586 -0.00931,-0.002 -0.026229,0.0149 -0.017047,0.0064 -0.019141,0.0023 z" id="69176 SOUCIEU-EN-JARREST" class="commune"/>
    <path d="m 4.7127877,46.878 -0.00833,0.0022 -0.018242,-0.0044 -0.020628,-0.01222 0.021319,-0.01428 0.019096,-0.003 0.00818,0.0028 0.00589,0.0086 -0.00983,0.0067 0.00254,0.01354 z" id="69179 SAINT-ANDEOL-LE-CHATEAU" class="commune"/>
    <path d="m 4.7801231,46.729267 -0.00835,-0.0059 0.00895,-0.0083 -0.00325,-0.01 0.00936,0.0014 0.018,-0.0052 0.00866,0.003 -0.010609,0.0247 -0.022755,1.79e-4 z" id="69202 SAINTE-FOY-LES-LYON" class="commune"/>
    <path d="m 4.7890479,46.786892 -0.00391,-0.0014 4.756e-4,-0.006 -0.00438,-1.78e-4 -0.00765,-0.01511 -0.00933,-0.0016 0.00371,-0.01582 0.010475,-0.01434 0.026901,0.01615 0.00359,0.0054 0.011653,0.0025 -0.0031,0.0063 -0.024833,0.01636 -6.657e-4,0.0067 -0.00293,9.71e-4 z" id="69204 SAINT-GENIS-LAVAL" class="commune"/>
    <path d="m 4.7439012,46.696536 -0.018545,0.0034 -0.00931,-0.0018 -0.00234,-0.0051 -0.00759,-0.0017 0.00906,-0.0071 0.01876,-0.0027 0.00997,0.01498 z" id="69205 SAINT-GENIS-LES-OLLIERES" class="commune"/>
    <path d="m 4.7102762,46.833441 -0.014223,-0.0096 -0.019608,-0.0015 -0.020757,-0.01379 0.00299,-0.0054 -0.00497,-0.0046 0.019141,-0.0023 0.017047,-0.0064 0.016522,0.01867 -6.972e-4,0.01055 0.00621,0.01333 -0.00165,0.001 z" id="69219 SAINT-LAURENT-D'AGNY" class="commune"/>
    <path d="m 4.7300023,46.831436 -0.010689,0.0036 -0.00739,-0.0027 -0.00621,-0.01333 6.972e-4,-0.01055 0.019376,-0.0078 0.022788,2.53e-4 -0.018573,0.03048 z" id="69241 TALUYERS" class="commune"/>
    <path d="m 4.7523381,46.701936 -0.0082,-0.0023 -2.352e-4,-0.0031 -0.00997,-0.01498 -0.01876,0.0027 -0.00334,-10e-4 1.316e-4,-0.0051 0.014855,-0.0029 0.016315,0.0067 0.018075,-5.66e-4 0.010793,0.0062 0.020452,-0.0088 -0.00589,0.0091 -0.00434,0.0085 -0.010515,0.0049 -0.019369,5.71e-4 z" id="69244 TASSIN-LA-DEMI-LUNE" class="commune"/>
    <path d="m 4.8078795,46.817997 -0.00622,4.95e-4 -0.00572,-0.0033 0.00636,-0.0049 -0.00477,-0.01334 0.00525,-0.0057 0.00458,-0.0011 0.021225,0.008 -0.016566,0.01169 -0.00337,0.0064 -7.772e-4,0.0018 z" id="69260 VERNAISON" class="commune"/>
    <path d="m 4.7575543,46.811409 -0.0047,-8.3e-4 -0.00428,-0.0096 0.00289,-0.0075 0.016893,-0.01055 0.012874,-0.0036 0.00438,1.78e-4 -4.756e-4,0.006 0.00391,0.0014 5.081e-4,0.0034 -0.011516,0.0098 -0.00923,0.0019 -0.011254,0.0094 z" id="69268 VOURLES" class="commune"/>
    <path d="m 4.9983305,46.848872 -0.026785,-0.0096 -0.038814,0.0056 -0.00565,0.0016 0.00537,-0.0057 2.368e-4,-0.0068 -0.014436,-0.01679 -9.794e-4,-0.01325 0.00162,-0.01126 0.040492,0.01769 0.021611,0.0205 0.00845,0.0027 0.012297,0.0046 -0.00287,0.01024 -5.421e-4,4.41e-4 z" id="69270 CHAPONNAY" class="commune"/>
    <path d="m 4.973612,46.731489 -0.00979,5.95e-4 -0.027862,-0.006 -0.00338,-0.01799 0.032628,-0.008 0.019578,-0.0016 0.0102,0.0072 -0.015717,0.01278 -0.00565,0.01306 z" id="69271 CHASSIEU" class="commune"/>
    <path d="m 4.8575857,46.875634 -0.00894,-0.0034 -0.020111,-0.0078 -0.017715,-0.002 0.017745,-0.02535 0.013405,-0.004 0.011317,0.0062 8.63e-5,0.01699 0.00641,0.005 -0.0022,0.01431 z" id="69272 COMMUNAY" class="commune"/>
    <path d="m 4.8923278,46.810351 0.00388,-0.01587 -0.00824,-0.0069 -0.00145,-0.007 0.0064,-0.01293 0.018715,-0.0038 0.014224,0.0056 0.00822,-8.86e-4 -0.00235,0.01371 -0.012833,0.01033 -0.00162,0.01126 -0.024941,0.0064 z" id="69273 CORBAS" class="commune"/>
    <path d="m 5.0602744,46.733247 -0.023888,-0.0043 -0.0092,0.0082 4.144e-4,0.0069 -0.00364,0.0024 -0.00985,8.33e-4 -0.014049,-0.0033 -0.023005,-0.006 -0.00345,-0.0065 0.00565,-0.01306 0.015717,-0.01278 0.023195,-0.0056 0.029351,10e-4 0.0091,0.01889 0.00365,0.01324 z" id="69277 GENAS" class="commune"/>
    <path d="m 4.8913639,46.850607 -0.00454,-0.01294 0.00188,-0.01682 0.00362,-0.0105 0.024941,-0.0064 9.794e-4,0.01325 0.014436,0.01679 -2.368e-4,0.0068 -0.00537,0.0057 -0.018805,-9.78e-4 -0.01691,0.0052 z" id="69281 MARENNES" class="commune"/>
    <path d="m 4.9593845,46.810373 -0.040492,-0.01769 0.012833,-0.01033 0.00235,-0.01371 0.018616,8.88e-4 0.016698,0.006 0.00465,0.0011 4.869e-4,0.0069 -0.00462,0.0012 -0.00137,0.01032 -0.00531,0.0058 -0.00385,0.0095 z" id="69283 MIONS" class="commune"/>
    <path d="m 5.0110581,46.782108 -0.014333,-0.0023 -0.00566,-0.0051 -0.00107,-0.01066 0.01007,-0.02009 0.014049,0.0033 0.00985,-8.33e-4 0.00364,-0.0024 -4.144e-4,-0.0069 0.0092,-0.0082 0.023888,0.0043 -0.00277,0.0088 0.00281,0.0023 -0.01963,0.01106 -0.00953,0.01596 -0.02009,0.01072 z" id="69287 SAINT-BONNET-DE-MURE" class="commune"/>
    <path d="m 5.0436414,46.830824 -0.0095,0.0073 -0.03132,-0.0085 -0.013375,0.0039 -0.00845,-0.0027 -0.021611,-0.0205 0.00385,-0.0095 0.00493,-3.64e-4 0.00554,0.005 0.024271,-0.0031 0.00154,-0.0033 -0.00781,-0.01274 -0.00755,-0.0045 -0.00963,0.0017 -4.869e-4,-0.0069 -0.00465,-0.0011 0.00765,-0.0044 0.014019,0.0036 0.00566,0.0051 0.014333,0.0023 0.015152,0.0013 0.027815,0.0087 0.00404,0.0067 -0.016722,0.0069 -0.00416,0.0062 -6.505e-4,0.01 0.0071,0.0089 z" id="69289 SAINT-PIERRE-DE-CHANDIEU" class="commune"/>
    <path d="m 4.8532848,46.839308 -0.011317,-0.0062 -0.00581,-0.01223 0.013891,-0.0034 0.00473,-0.0062 0.00268,-0.02104 0.030505,-0.0025 0.00824,0.0069 -0.00388,0.01587 -0.00362,0.0105 -0.019705,0.0018 -0.013987,0.0098 -0.00173,0.0069 z" id="69291 SAINT-SYMPHORIEN-D'OZON" class="commune"/>
    <path d="m 4.932572,46.70807 -0.014983,-0.0042 0.00251,-0.01342 -0.015947,-0.01189 0.00203,-0.01 -0.022346,-0.0061 -0.0039,-0.006 0.0067,-0.0047 0.037164,-0.0036 0.018065,-0.005 0.00965,2.48e-4 0.01217,-0.0021 0.00669,0.0035 -0.032637,0.03558 -0.00517,0.02772 z" id="69256 VAULX-EN-VELIN" class="commune"/>
    <path d="m 4.879934,46.656459 -0.00127,-4.8e-4 -0.013182,-0.01843 7.316e-4,-3.03e-4 0.027487,-0.02098 0.014275,-6.61e-4 -0.00163,-0.0066 -0.00939,-0.0074 0.00361,-0.007 0.010593,0.0064 0.00995,0.01843 -0.0029,0.02312 0.00559,0.0056 -0.037164,0.0036 -0.0067,0.0047 z" id="69286 RILLIEUX-LA-PAPE" class="commune"/>
    <path d="m 4.8668329,46.613952 -0.01226,-0.01787 0.021688,-0.0051 0.00757,-0.01883 0.02519,0.0059 -0.00845,0.01651 -0.00361,0.007 -0.019181,0.0012 -0.010948,0.0112 z" id="69033 CAILLOUX-SUR-FONTAINES" class="commune"/>
    <path d="m 4.932572,46.70807 0.00517,-0.02772 0.032637,-0.03558 0.00997,0.0015 -0.00435,0.01669 0.00868,0.01165 9.91e-5,0.02376 -0.019578,0.0016 -0.032628,0.008 z" id="69275 DECINES-CHARPIEU" class="commune"/>
    <path d="m 4.7877056,46.583029 0.00482,-0.02811 0.011573,-8.34e-4 0.00108,0.0017 0.00964,0.01195 0.00503,0.0027 -0.012531,0.01246 -0.019613,5.7e-5 z" id="69207 SAINT-GERMAIN-AU-MONT-D'OR" class="commune"/>
    <path d="m 4.7660365,46.604206 -0.011864,-0.01075 -0.00759,-0.02004 0.00879,-0.0025 0.00824,-0.01528 0.028918,-6.71e-4 -0.00482,0.02811 -0.00668,0.01243 -0.00999,0.0065 -0.005,0.0023 z" id="69049 CHASSELAY" class="commune"/>
    <path d="m 4.7636078,46.555593 -0.023441,-0.0057 -0.00646,-0.009 5.187e-4,-8.2e-5 0.027045,-0.02017 -1.461e-4,-0.0035 0.012563,-0.0041 0.00431,0.0013 0.011,0.01429 0.018766,0.0027 0.00291,0.01105 -0.00658,0.01169 -0.011573,8.34e-4 -0.028918,6.71e-4 z" id="69163 QUINCIEUX" class="commune"/>
    <path d="m 4.7342215,46.540835 -0.00159,-0.0092 -0.00805,-0.01212 0.00679,-0.0087 0.013084,0.0039 0.016666,0.0024 1.461e-4,0.0035 -0.027045,0.02017 z" id="69005 AMBERIEUX" class="commune"/>
    <path d="m 4.7269653,46.544687 -0.017961,0.0038 -0.0232,-0.0016 0.00236,-0.01147 0.011002,-0.0069 0.033457,0.0031 0.00159,0.0092 -5.187e-4,8.2e-5 -0.00674,0.0038 z" id="69122 LUCENAY" class="commune"/>
    <path d="m 4.7326272,46.531623 -0.033457,-0.0031 -0.00378,-0.0091 -0.00886,0.0022 -0.027076,-0.004 0.00375,-0.01378 0.015808,0.0071 0.04254,-0.02109 0.00866,0.0012 0.00685,-0.0078 0.00439,4.18e-4 0.00873,0.0041 -0.00171,0.0021 -0.017881,0.01169 7.89e-4,0.0094 -0.00679,0.0087 0.00805,0.01212 z" id="69009 ANSE" class="commune"/>
    <path d="m 4.7191723,46.452444 -0.00227,-0.0098 -0.037824,0.0064 -0.00832,-0.01236 0.010737,-0.01122 0.00146,-0.0067 0.017757,-0.0055 0.00971,4.7e-5 0.02155,0.01098 0.014469,3.3e-5 -0.00217,0.01044 0.00471,0.01361 -4.963e-4,9.74e-4 -0.029319,0.0031 z" id="69013 ARNAS" class="commune"/>
    <path d="m 4.7496149,46.369738 -0.027166,-0.0075 -0.010613,-0.01003 -0.013312,-0.002 -0.00373,-0.0096 0.018279,-0.0039 0.036847,0.004 0.017194,0.005 -0.00694,0.0059 -0.012156,0.0093 0.00159,0.0089 z" id="69019 BELLEVILLE" class="commune"/>
    <path d="m 4.643245,46.197532 -0.021712,-0.0043 -0.00297,-0.0059 0.00333,-0.0064 -0.00488,-0.0095 0.018757,-0.0113 0.00295,-0.0095 0.014528,-0.0017 0.01129,0.0065 0.015238,-0.0079 0.013656,0.0022 4.476e-4,0.0078 0.00937,0.0097 0.00423,1.63e-4 2.059e-4,0.01505 -0.00699,0.0022 -0.00718,-0.0041 -0.00511,0.0051 -0.00849,-0.0014 -0.00431,0.0017 -0.00182,0.01024 -0.00567,-0.0052 -0.01551,0.0062 -0.00936,3.24e-4 z" id="69035 CENVES" class="commune"/>
    <path d="m 4.7214885,46.255315 -0.024469,-0.01572 -0.01425,-2.93e-4 -0.00392,-0.006 0.00241,-0.003 0.016451,-0.007 0.022297,3.8e-4 0.00152,0.0058 0.014146,0.01102 -0.00986,0.0058 -0.00433,0.009 z" id="69053 CHENAS" class="commune"/>
    <path d="m 4.7874861,46.321267 -0.032724,-0.01097 -0.011967,-2.02e-4 0.00726,-0.02561 0.013163,-0.0018 -1.86e-5,-0.0063 0.012298,-0.0014 0.00472,4.16e-4 0.00211,0.005 0.00942,0.008 0.010809,0.0072 -0.00661,0.01728 -0.00846,0.0083 z" id="69077 DRACE" class="commune"/>
    <path d="m 4.6956718,46.278138 -0.015281,-0.0031 -0.014208,-0.01929 -3.884e-4,-0.01325 0.00905,-0.0075 0.00793,0.0043 0.01425,2.93e-4 0.024469,0.01572 0.00289,0.01253 -0.00939,3.8e-5 -0.019314,0.01026 z" id="69084 FLEURIE" class="commune"/>
    <path d="m 4.7361814,46.218952 -0.00317,0.0057 -0.012999,-9.9e-4 -0.022297,-3.8e-4 -0.00144,-0.0026 -0.022498,-0.02445 0.00182,-0.01024 0.00431,-0.0017 0.00338,0.01286 0.00719,0.0047 0.014739,-5.28e-4 0.00367,0.0023 0.011795,0.0043 0.015487,0.01106 z" id="69103 JULIENAS" class="commune"/>
    <path d="m 4.6962807,46.220719 -0.022224,0.0031 -0.020814,-0.0065 -0.022987,-0.01349 0.01299,-0.0063 0.00936,-3.24e-4 0.01551,-0.0062 0.00567,0.0052 0.022498,0.02445 z" id="69104 JULLIE" class="commune"/>
    <path d="m 4.7500526,46.284484 -0.00247,-0.0026 -0.020928,0.0075 -0.022633,-0.005 -0.00835,-0.0063 0.019314,-0.01026 0.00939,-3.8e-5 0.00468,0.0049 0.021516,0.0059 0.012621,-0.0022 1.86e-5,0.0063 -0.013163,0.0018 z" id="69108 LANCIE" class="commune"/>
    <path d="m 4.7414364,46.483606 -0.00439,-4.18e-4 -0.00685,0.0078 -0.00866,-0.0012 -0.018735,-0.0043 -0.00828,-0.0083 0.00358,-0.005 0.00965,-0.002 0.00314,0.0027 0.025079,7.33e-4 0.00882,0.0034 -0.00336,0.0066 z" id="69115 LIMAS" class="commune"/>
    <path d="m 4.7464423,46.424345 -0.014469,-3.3e-5 -0.02155,-0.01098 -0.00971,-4.7e-5 -0.017757,0.0055 -0.00668,-0.0022 -0.00459,-0.01202 0.011456,-0.0066 -0.00116,-0.0062 0.014451,-0.0025 0.013214,-0.01384 0.00397,-0.0099 0.00883,-0.0033 0.027166,0.0075 0.00665,0.0034 0.00549,0.01153 -0.00267,0.0062 -0.019467,0.01372 0.00604,0.01224 7.856e-4,0.0074 z" id="69206 SAINT-GEORGES-DE-RENEINS" class="commune"/>
    <path d="m 4.7671136,46.345627 -0.017194,-0.005 9.945e-4,-0.01291 -0.00713,-0.01249 0.00184,-0.0031 0.00914,-0.0018 0.032724,0.01097 -0.015417,0.01326 -0.00496,0.0111 z" id="69242 TAPONAS" class="commune"/>
    <path d="m 4.4332034,46.188326 -0.00417,-0.0018 -0.01364,0.0037 -0.018315,-0.0048 -7.117e-4,-0.0077 0.00239,-0.0098 0.00834,-0.0084 -0.00128,-0.0033 0.018693,-3.26e-4 0.00253,-0.0064 0.00862,0.0034 0.0038,0.0064 0.016403,0.01735 -0.00196,0.0033 -0.014548,0.003 -0.00615,0.0056 z" id="69002 AIGUEPERSE" class="commune"/>
    <path d="m 4.414315,46.272082 -0.00796,-0.0022 -0.010182,-0.007 6.96e-4,-0.0064 0.026093,-0.0075 0.00865,0.01102 -0.014023,0.0072 7.467e-4,0.0032 -0.00402,0.0017 z" id="69016 AZOLETTE" class="commune"/>
    <path d="m 4.4990481,46.30805 -0.00972,-9.29e-4 -0.00639,-0.0052 -0.00156,-0.01037 -0.013045,-0.02254 0.012167,-0.0021 -4.532e-4,-0.01252 0.020002,0.01367 0.010029,0.01108 -0.00265,0.01375 -0.00407,0.0054 0.00234,0.0058 -0.00665,0.0039 z" id="69054 CHENELETTE" class="commune"/>
    <path id="69066 COURS-LA-VILLE" transform="matrix(0.01469884,0,0,0.01013192,-5.1390171,41.362759)" d="m 646.35156,488.64258 -1.96484,0.30469 -0.72266,0.54296 -0.16211,1.30079 -0.70898,0.66992 -0.21485,0.94726 0.36133,0.54297 -0.0703,1.29492 -0.61133,0.32618 0.10157,0.62109 -0.38086,0.85937 1.13281,0.83985 0.29492,-0.11719 0.36719,-1.16992 -0.0527,-0.94727 -0.24218,-0.20703 0.21093,-0.23242 0.63672,-0.17773 0.62891,-0.76954 0.98242,0.0195 0.78516,0.58203 0.22656,-0.58203 0,-0.01 0,0.002 0.91601,-0.35547 0.36719,-0.89843 0.0898,-1.375 -0.24805,-1.02344 -0.40039,-0.57227 z" class="commune1"/>
    <path d="m 4.4671212,46.336652 -0.00188,0.0063 -0.011476,-0.0052 -0.022239,-0.0029 -0.014168,-0.01858 0.0063,-0.01547 0.00751,-0.0042 0.00742,-0.01231 0.029744,-0.01528 0.013045,0.02254 0.00156,0.01037 0.00639,0.0052 0.00972,9.29e-4 0.023888,0.01886 -0.018663,0.0018 -0.018127,-0.0031 -0.01798,0.0044 -0.00105,0.0066 z" id="69160 POULE-LES-ECHARMEAUX" class="commune"/>
    <path d="m 4.4385909,46.284275 -0.00521,-0.005 -0.019065,-0.0072 0.00402,-0.0017 -7.467e-4,-0.0032 0.014023,-0.0072 -0.00865,-0.01102 -0.00121,-0.0039 0.023966,2.57e-4 0.015571,-0.007 0.022458,0.0043 0.00259,0.0048 -0.0063,0.0069 4.532e-4,0.01252 -0.012167,0.0021 -0.029744,0.01528 z" id="69161 PROPIERES" class="commune"/>
    <path d="m 4.4248379,46.349137 -0.028421,0.0026 -0.00718,-0.0038 0.00134,-0.01394 -0.00364,-0.01037 -0.0059,-0.0058 -0.019445,-0.0042 0.00764,-0.0081 0.012583,-0.0031 0.026436,0.0126 0.00912,0.0011 0.014168,0.01858 0.00114,0.01573 -0.00784,-0.0014 z" id="69164 RANCHAL" class="commune"/>
    <path d="m 4.4848884,46.21553 -0.020278,-0.01049 -0.018871,-0.0056 -0.012536,-0.01114 0.00615,-0.0056 0.014548,-0.003 0.00196,-0.0033 -0.016403,-0.01735 0.018734,-0.0029 0.017254,0.01161 0.013025,-0.0037 0.015536,0.02085 0.00626,0.0085 -0.012062,0.0047 -0.00212,0.0098 -0.00768,0.0022 -0.0035,0.0053 z" id="69182 SAINT-BONNET-DES-BRUYERES" class="commune"/>
    <path d="m 4.5451174,46.219025 -0.00539,-0.0059 -0.00892,-0.0031 -0.034734,-0.002 0.00212,-0.0098 0.012062,-0.0047 -0.00626,-0.0085 0.033995,-0.0031 0.00845,-0.0037 0.00461,0.0091 0.00771,-0.0031 0.00728,0.0042 1.536e-4,0.0064 -0.011812,0.01772 -0.00928,0.0064 z" id="69185 SAINT-CHRISTOPHE" class="commune"/>
    <path d="m 4.4217558,46.245129 -0.01501,-0.0126 -0.018667,-1.67e-4 -0.00186,-0.0059 0.00539,-0.01185 -0.00604,-0.0086 0.00272,-0.0018 0.014581,4.22e-4 0.028026,0.03186 0.014829,0.0089 -0.023966,-2.57e-4 z" id="69186 SAINT-CLEMENT-DE-VERS" class="commune"/>
    <path d="m 4.4457213,46.245386 -0.014829,-0.0089 -0.028026,-0.03186 -0.014581,-4.22e-4 0.00879,-0.0189 0.018315,0.0048 0.01364,-0.0037 0.00417,0.0018 0.012536,0.01114 0.018871,0.0056 0.020278,0.01049 0.00254,0.003 -0.00368,0.02413 -0.022458,-0.0043 -0.015571,0.007 z" id="69209 SAINT-IGNY-DE-VERS" class="commune"/>
    <path d="m 4.5838933,46.206598 0.00183,-0.0097 7.923e-4,-0.01345 0.032054,0.0039 0.00297,0.0059 0.021712,0.0043 -0.01299,0.0063 -0.0074,0.0018 -0.00943,-0.0021 -0.02953,0.003 z" id="69210 SAINT-JACQUES-DES-ARRETS" class="commune"/>
    <path d="m 4.3534084,46.454707 -0.015724,0.01265 -0.012679,0.005 -0.00919,-0.002 -0.0094,0.0018 -0.00633,-0.009 0.011912,-0.01624 -0.00168,-0.0029 0.01213,-0.01 0.01349,7.7e-4 0.00839,-0.01118 0.00937,0.0016 0.00364,0.006 0.00898,0.0025 -0.00304,0.0098 -0.00638,0.0051 -0.00351,0.006 z" id="69214 SAINT-JEAN-LA-BUSSIERE" class="commune"/>
    <path d="m 4.5838933,46.206598 -0.0012,0.0034 -0.013641,0.004 -0.014654,-0.0014 0.011812,-0.01772 0.01145,0.0032 0.00806,-0.0012 -0.00183,0.0097 z" id="69224 SAINT-MAMERT" class="commune"/>
    <path d="m 4.5857184,46.196914 -0.00806,0.0012 -0.01145,-0.0032 -1.536e-4,-0.0064 -0.00728,-0.0042 -0.00771,0.0031 -0.00461,-0.0091 0.00175,-0.0096 0.00959,-0.01106 0.012062,0.0012 0.00174,0.0029 0.0013,0.01299 0.013618,0.0088 -7.923e-4,0.01345 z" id="69251 TRADES" class="commune"/>
    <path d="m 4.4628994,46.566569 -0.00908,-0.0022 -0.00775,0.0038 -0.014374,3.13e-4 -0.014578,-0.0083 -0.00472,7.88e-4 -0.00945,-0.0012 -0.00663,-0.01527 0.00516,-0.0052 -0.0043,-0.0055 0.00325,-0.01249 0.018105,0.0097 0.00427,-0.0013 0.00346,0.0062 0.024724,0.01026 2.532e-4,1.83e-4 0.00178,0.01558 0.011943,0.0044 -0.00207,2.8e-4 z" id="69243 TARARE" class="commune"/>
    <path d="m 4.4405524,46.618303 -0.00464,-9.06e-4 -0.01541,0.0075 -0.029901,-0.01023 -0.00752,-0.0085 0.00753,-0.0043 0.00553,-0.0095 0.00778,0.0078 0.015072,-0.01074 0.019256,0.01546 0.0023,0.01347 z" id="69001 AFFOUX" class="commune"/>
    <path d="m 4.3460197,46.522211 -0.024295,-0.01108 -0.00974,-9.87e-4 -0.018076,-0.01139 0.00666,-0.0049 -0.00281,-0.0066 -0.00894,-0.0082 -0.013081,-0.0046 -0.016767,-0.0034 -0.010932,-0.0056 -0.0042,-0.01066 0.022333,-1.58e-4 0.00511,0.0052 0.018477,-0.0033 0.010333,0.0067 0.00633,0.009 0.0094,-0.0018 0.00919,0.002 0.012679,-0.005 0.015724,-0.01265 0.00475,0.0012 -9.77e-4,0.01027 0.017005,0.02886 0.015729,0.0086 -3.053e-4,0.0065 -0.00508,0.0054 -0.00926,0.0018 -0.022452,-0.004 -0.0068,0.0088 z" id="69006 AMPLEPUIS" class="commune"/>
    <path d="m 4.3906766,46.697077 -0.017406,0.0056 -0.01411,-0.0017 -0.010059,-0.02007 0.00919,-0.0077 0.018162,-0.0052 -8.321e-4,-0.02035 0.00377,-0.0023 0.00846,0.0038 0.00576,0.0089 0.00461,9.13e-4 0.0091,0.01532 -7.163e-4,0.0064 -0.011353,0.0067 -0.00457,0.0098 z" id="69038 CHAMBOST-LONGESSAIGNE" class="commune"/>
    <path d="m 4.4088599,46.815033 -0.01625,-0.01649 0.00342,-0.0044 -0.00348,-0.0044 0.036581,-0.01944 0.011926,0.0049 0.016155,0.01151 -1.003e-4,0.0033 -0.00391,0.0021 -0.00812,-0.0028 -0.019816,0.0099 -0.014465,0.0092 -0.00194,0.0067 z" id="69095 GREZIEU-LE-MARCHE" class="commune"/>
    <path d="m 4.3734468,46.761378 -0.00793,-0.0077 0.0072,-0.0047 0.00243,-0.01021 0.00964,-0.0078 0.00646,-0.01669 0.011678,-0.006 5.87e-5,0.0033 0.00922,-8.48e-4 0.00602,0.0044 0.017994,-2.5e-5 8.928e-4,0.0067 -0.00867,0.0076 -0.0035,0.0095 0.00179,0.0064 0.013153,0.0014 0.0029,0.009 -0.00949,0.0056 -0.03197,-0.0087 -0.0048,8.59e-4 -0.00376,0.0064 -0.019315,0.0015 z" id="69099 HAUTE-RIVOIRE" class="commune"/>
    <path d="m 4.3944707,46.586986 -0.033377,-0.001 -0.018625,-0.01073 -0.00553,-0.01326 -0.010712,-0.0072 -0.003,-0.0065 0.022995,-0.01188 0.00988,6.4e-5 0.021731,0.0082 0.018494,-2.32e-4 0.00663,0.01527 0.00945,0.0012 -0.01442,0.0081 0.00235,0.01293 -0.00586,0.005 z" id="69102 JOUX" class="commune"/>
    <path d="m 4.4505468,46.688059 -0.006,-0.0055 -0.00954,-0.0018 -0.028413,-1.42e-4 7.163e-4,-0.0064 -0.0091,-0.01532 -6.363e-4,-0.0033 0.017151,-0.0061 0.023938,-4.9e-4 0.00672,0.0093 6.171e-4,0.01381 0.014326,0.01413 -0.00979,0.0018 z" id="69120 LONGESSAIGNE" class="commune"/>
    <path d="m 4.3925507,46.789676 -0.026631,-0.0087 0.00281,-0.0026 -0.00284,-0.0093 0.00756,-0.0078 0.019315,-0.0015 0.00376,-0.0064 0.0048,-8.59e-4 0.03197,0.0087 0.0052,0.0044 0.0076,-0.0018 0.00242,0.0028 -0.00746,0.0083 -0.011926,-0.0049 -0.036581,0.01944 z" id="69132 MEYS" class="commune"/>
    <path d="m 4.4224441,46.82249 -0.01216,-0.0024 -0.00142,-0.0051 0.00194,-0.0067 0.014465,-0.0092 0.019816,-0.0099 0.00812,0.0028 0.00391,-0.0021 0.016298,0.0044 0.00768,-0.0023 -0.00238,0.02067 -0.0019,0.0028 -0.00834,6.83e-4 -0.00611,-0.0052 -0.00966,0.0017 -0.00673,0.0051 -0.023525,0.0047 z" id="69155 POMEYS" class="commune"/>
    <path d="m 4.396322,46.544409 -0.018494,2.32e-4 -0.021731,-0.0082 -0.00988,-6.4e-5 -0.00863,-0.0026 0.00844,-0.01161 0.0068,-0.0088 0.022452,0.004 0.00926,-0.0018 0.00508,-0.0054 0.00858,0.0018 0.00224,0.0092 -0.00325,0.01249 0.0043,0.0055 -0.00516,0.0052 z" id="69174 LES LSAUVAGES" class="commune"/>
    <path d="m 4.4362176,46.715066 -0.017994,2.5e-5 -0.00602,-0.0044 -0.00922,8.48e-4 -5.87e-5,-0.0033 -0.00537,-0.0079 -0.00688,-0.0033 0.00457,-0.0098 0.011353,-0.0067 0.028413,1.42e-4 0.00954,0.0018 0.006,0.0055 -0.00556,0.0093 -0.010022,0.0074 0.00125,0.01026 z" id="69187 SAINT-CLEMENT-LES-PLACES" class="commune"/>
    <path d="m 4.4189935,46.589371 -0.015072,0.01074 -0.00778,-0.0078 -0.00167,-0.0053 0.00586,-0.005 -0.00235,-0.01293 0.01442,-0.0081 0.00472,-7.88e-4 0.014578,0.0083 0.014374,-3.13e-4 0.00775,-0.0038 0.00908,0.0022 -0.00959,0.0076 0.00176,0.0067 -0.036076,0.0086 z" id="69225 SAINT-MARCEL-L'ECLAIRE" class="commune"/>
    <path d="m 4.4674085,46.824058 -0.021486,0.0063 -0.00443,-0.0013 -0.019045,-0.0066 0.023525,-0.0047 0.00673,-0.0051 0.00966,-0.0017 0.00611,0.0052 -0.00107,0.0079 z" id="69238 SAINT-SYMPHORIEN-SUR-COISE" class="commune"/>
    <path d="m 4.5913487,46.849925 -5.751e-4,0.0062 -0.00568,-0.0036 0.00626,-0.0026 z" id="69166 RIVERIE" class="commune"/>
    <path d="m 4.4745169,46.857447 -0.013676,-0.0063 -0.010964,-0.0046 -0.00281,-0.01241 -0.00558,-0.005 0.00443,0.0013 0.021486,-0.0063 0.019272,-0.0011 0.00132,0.0033 -0.00234,0.0067 0.00497,0.01313 -0.015803,0.008 -3.222e-4,0.0034 z" id="69062 COISE" class="commune"/>
    <path d="m 4.7509424,46.919813 -0.00637,0.0085 -0.014995,-0.0065 -0.013412,0.0011 -0.021387,-0.008 -0.00228,-0.01355 0.00537,-0.0057 0.025603,-0.01073 0.00222,-0.0064 0.00868,-0.0024 0.00834,0.0037 0.013245,-0.004 0.010676,0.01916 -0.011188,0.0059 -0.00544,0.009 9.327e-4,0.0098 z" id="69080 ECHALAS" class="commune"/>
    <path d="m 4.7555571,46.959065 -0.032153,-0.0022 -0.017943,-0.0154 -0.00275,-0.0063 0.014048,-0.0089 -5.897e-4,-0.0033 0.013412,-0.0011 0.014995,0.0065 0.00637,-0.0085 0.00583,0.0052 0.019334,0.0033 1.92e-5,0.0054 -0.010717,0.0062 -0.00214,0.0097 -0.00819,0.0031 4.786e-4,0.0063 z" id="69097 LES LHAIES" class="commune"/>
    <path d="m 4.5472615,46.871997 -0.025683,0.0072 -0.00751,-0.004 -0.0093,3.89e-4 -0.00125,-0.0096 -0.035708,4.2e-4 0.0067,-0.009 3.222e-4,-0.0034 0.015803,-0.008 -0.00497,-0.01313 0.00234,-0.0067 -0.00132,-0.0033 -0.019272,0.0011 0.00107,-0.0079 0.00834,-6.83e-4 0.0019,-0.0028 0.028033,0.0026 0.00765,-0.0038 0.014692,3.34e-4 -0.00121,0.01018 0.022506,0.0054 0.00763,0.01266 -0.00156,0.0065 -0.013317,0.0091 0.00412,0.0162 z" id="69110 LARAJASSE" class="commune"/>
    <path d="m 4.6819291,46.972348 -0.00425,-0.0013 -0.00654,0.0045 -0.00896,-0.01006 -0.00802,-0.0011 -0.00356,-0.0094 0.0033,-0.0025 -0.00435,-0.01685 0.00123,-0.0135 0.010861,-0.0066 0.00368,-0.0062 0.00116,-2.08e-4 0.00618,0.01213 0.030034,0.01393 0.00275,0.0063 0.017943,0.0154 -0.00158,8.68e-4 -0.02183,0.01616 -0.018068,-0.0016 z" id="69119 LONGES" class="commune"/>
    <path d="m 4.5472615,46.871997 -0.00412,-0.0162 0.013317,-0.0091 0.00156,-0.0065 0.012511,-0.0036 0.00502,-0.009 0.00731,-0.0039 0.020068,0.0096 0.0012,0.0034 -0.00196,0.0065 -0.010822,0.0069 -0.00626,0.0026 -0.00413,0.0017 -0.00153,0.01321 -0.00883,0.0025 -0.023338,0.0021 z" id="69184 SAINTE-CATHERINE" class="commune"/>
    <path d="m 4.6028616,46.881747 -0.015751,-3.14e-4 -0.016511,-0.01154 0.00883,-0.0025 0.00153,-0.01321 0.00413,-0.0017 0.00568,0.0036 5.751e-4,-0.0062 0.010822,-0.0069 0.00196,-0.0065 0.016628,0.0041 0.018466,4.66e-4 0.00506,0.0017 -0.030598,0.0275 0.00118,0.0063 -0.011997,0.0051 z" id="69195 SAINT-DIDIER-SOUS-RIVERIE" class="commune"/>
    <path d="m 4.6874991,46.893947 -0.011743,-0.01063 -0.00483,-8.73e-4 -0.012334,0.0059 -0.00931,-0.0011 0.00501,-0.01287 0.011304,-0.01083 0.020628,0.01222 4.387e-4,0.0033 0.00881,0.0022 -0.00328,0.01263 -0.00468,4.7e-5 z" id="69213 SAINT-JEAN-DE-TOUSLAS" class="commune"/>
    <path d="m 4.6447038,46.911632 -0.00154,-0.0024 -0.00716,-0.005 -0.010203,-0.02013 -0.010941,-0.0074 -0.00118,-0.0063 0.030598,-0.0275 0.020313,0.01029 9.976e-4,0.01035 -0.011304,0.01083 -0.00501,0.01287 -0.00112,0.01039 0.011244,0.01113 -0.014697,0.0029 z" id="69228 SAINT-MAURICE-SUR-DARGOIRE" class="commune"/>
    <path d="m 4.6925022,46.901417 -0.00733,-0.004 0.00232,-0.0035 0.00468,-4.7e-5 0.00328,-0.01263 -0.00881,-0.0022 -4.387e-4,-0.0033 0.018242,0.0044 0.00833,-0.0022 0.012909,5.85e-4 -0.00222,0.0064 -0.025603,0.01073 -0.00537,0.0057 z" id="69236 SAINT-ROMAIN-EN-GIER" class="commune"/>
    <path d="m 4.7027088,46.935166 -0.030034,-0.01393 -0.00618,-0.01213 0.018685,-0.01171 0.00733,0.004 0.00228,0.01355 0.021387,0.008 5.897e-4,0.0033 -0.014048,0.0089 z" id="69252 TREVES" class="commune"/>
    <path d="m 4.7759179,46.997943 -0.00713,-0.0029 -0.011856,0.0014 -0.018394,-0.01708 0.00455,-0.0013 -0.00491,-0.01299 -0.016355,-0.0073 0.00158,-8.68e-4 0.032153,0.0022 0.011083,0.01431 0.013355,0.0091 0.00132,0.01187 -0.00184,0.0027 -0.00356,8.26e-4 z" id="69064 CONDRIEU" class="commune"/>
    <path d="m 4.8012784,46.972804 -0.0078,-0.0035 -0.018169,-0.01963 8.196e-4,-0.01601 -1.92e-5,-0.0054 0.012397,-0.0022 0.00125,5.6e-4 0.024661,0.01231 0.024363,0.004 0.0066,0.0054 -0.00392,0.0032 -0.016978,0.0057 -0.010878,0.01074 -0.012321,0.0048 z" id="69007 AMPUIS" class="commune"/>
    <path d="m 4.8613284,46.935305 -0.00437,-0.0046 -0.011617,-0.0028 0.010094,-0.0064 0.016376,0.0031 -0.010486,0.01079 z" id="69189 SAINTE-COLOMBE" class="commune"/>
    <path d="m 4.8453805,46.94831 -0.0066,-0.0054 -0.024363,-0.004 -0.024661,-0.01231 0.028246,0.0034 0.023979,2.29e-4 0.00336,-0.0024 0.011617,0.0028 0.00437,0.0046 -0.015948,0.013 z" id="69193 SAINT-CYR-SUR-LE-RHONE" class="commune"/>
    <path d="m 4.8453438,46.927836 -0.00336,0.0024 -0.023979,-2.29e-4 -0.028246,-0.0034 -0.00125,-5.6e-4 0.018778,-0.02377 0.013413,-0.0087 0.015842,0.01371 0.030638,0.0087 0.00559,0.0052 -9.562e-4,0.0033 -0.016376,-0.0031 -0.010094,0.0064 z" id="69235 SAINT-ROMAIN-EN-GAL" class="commune"/>
    <path d="m 4.7799957,46.982507 -0.013355,-0.0091 -0.011083,-0.01431 -4.786e-4,-0.0063 0.00819,-0.0031 0.00214,-0.0097 0.010717,-0.0062 -8.196e-4,0.01601 0.018169,0.01963 0.0078,0.0035 -0.00215,8.48e-4 -0.01913,0.0089 z" id="69253 TUPIN-ET-SEMONS" class="commune"/>
    <path d="m 4.3982164,46.658921 -0.00461,-9.13e-4 -0.00576,-0.0089 -0.00756,-0.01444 0.00218,-0.0028 -0.00643,-0.0046 0.00453,-4.94e-4 0.00313,-0.0087 0.0069,-0.0035 0.029901,0.01023 0.01541,-0.0075 0.00464,9.06e-4 -0.00884,0.01147 0.00696,0.01923 -0.023938,4.9e-4 -0.017151,0.0061 6.363e-4,0.0033 z" id="69263 VILLECHENEVE" class="commune"/>
    <path d="m 4.7501686,46.487659 -0.00873,-0.0041 0.00336,-0.0066 -0.00882,-0.0034 -0.025079,-7.33e-4 -0.00314,-0.0027 -0.00965,0.002 0.010066,-0.0071 -0.00185,-0.0067 0.00344,-0.0062 0.00941,2.96e-4 0.029319,-0.0031 0.00108,0.0064 0.00504,0.02256 -0.00444,0.0093 z" id="69264 VILLEFRANCHE-SUR-SAONE" class="commune"/>
    <path d="m 4.8148201,46.567779 -0.00964,-0.01195 0.043938,-0.01654 0.00398,0.0058 0.018081,0.0037 9.061e-4,0.0098 -0.00598,0.0026 -0.00317,-0.0062 -0.00496,-1.45e-4 -0.010768,0.0072 -0.019018,0.0013 -0.013368,0.0045 z" id="69278 GENAY" class="commune"/>
    <path d="m 5.059605,46.67008 -0.00921,0.01598 -0.014137,-0.0016 -0.00657,-0.0047 9.773e-4,-0.01749 -0.015381,-0.009 0.00141,-0.0068 0.012317,-0.004 0.0088,0.0012 0.011993,-0.0038 0.00835,0.0023 9.104e-4,0.01807 5.365e-4,0.0098 z" id="69279 JONAGE" class="commune"/>
    <path d="m 5.1010675,46.638776 -0.010333,0.02622 -0.00404,0.0019 -0.027628,-0.0066 -9.104e-4,-0.01807 0.0344,-0.0019 0.00851,-0.0015 z" id="69280 JONS" class="commune"/>
    <path d="m 4.9949788,46.705644 -0.0102,-0.0072 -9.91e-5,-0.02376 -0.00868,-0.01165 0.00435,-0.01669 0.012577,-0.002 0.00829,-0.0023 0.015486,0.0045 -0.00141,0.0068 0.015381,0.009 -9.773e-4,0.01749 0.00657,0.0047 7.452e-4,0.0063 0.010517,0.01034 -0.029351,-0.001 -0.023195,0.0056 z" id="69282 MEYZIEU" class="commune"/>
    <path d="m 4.8762609,46.590986 -0.024218,-0.0044 -0.00469,-0.0056 0.00158,-0.0066 0.00517,-0.0056 0.00919,-0.0015 0.00281,-0.0061 0.00598,-0.0026 0.00861,-0.0036 0.00313,0.01717 -0.00757,0.01883 z" id="69284 MONTANAY" class="commune"/>
    <path d="m 4.8937,46.616264 -0.014241,0.0069 -0.013952,-0.0027 -0.0013,-0.0012 0.00262,-0.0052 0.010948,-0.0112 0.019181,-0.0012 0.00939,0.0074 0.00163,0.0066 -0.014276,6e-4 z" id="69293 SATHONAY-VILLAGE" class="commune"/>
    <path d="m 4.8285624,46.837084 -0.00929,-0.0102 -0.011947,-0.0037 5.55e-4,-0.0052 7.772e-4,-0.0018 0.012256,-0.0045 0.00207,0.0063 0.013183,0.0028 0.00581,0.01223 -0.013405,0.004 z" id="69294 SEREZIN-DU-RHONE" class="commune"/>
    <path d="m 4.8597845,46.861321 -0.00641,-0.005 -8.63e-5,-0.01699 0.00173,-0.0069 0.013987,-0.0098 0.019705,-0.0018 -0.00188,0.01682 0.00454,0.01294 -0.00366,-3.4e-5 -0.00495,-2.09e-4 -0.00189,0.0032 -0.021085,0.0077 z" id="69295 SIMANDRES" class="commune"/>
    <path d="m 4.8361601,46.820833 -0.013183,-0.0028 -0.00207,-0.0063 -0.012256,0.0045 0.00337,-0.0064 0.016566,-0.01169 0.0014,-0.0067 0.018557,0.0013 0.00891,-0.0026 -0.00268,0.02104 -0.00473,0.0062 -0.013891,0.0034 z" id="69296 SOLAIZE" class="commune"/>
    <path d="m 4.7771318,46.864759 0.00206,-0.0031 0.00843,-0.004 0.011329,-0.01187 0.00887,-0.01667 -4.989e-4,-0.006 0.011947,0.0037 0.00929,0.0102 -0.017745,0.02535 -0.033686,0.0023 z" id="69297 TERNAY" class="commune"/>
    <path d="m 4.974531,46.783542 0.00963,-0.0017 0.00755,0.0045 0.00781,0.01274 -0.00154,0.0033 -0.024271,0.0031 -0.00554,-0.005 -0.00493,3.64e-4 0.00531,-0.0058 0.00137,-0.01032 0.00462,-0.0012 z" id="69298 TOUSSIEU" class="commune"/>
    <path d="m 4.8206794,46.733265 -0.017802,-0.0042 0.010609,-0.0247 0.0048,-9.67e-4 -0.00499,0.0086 0.00567,0.01507 0.00171,0.0062 z" id="69142 LA LMULATIERE" class="commune"/>
    <path class="commune1" d="m 674.9668,526.4375 -0.71485,0.48438 0.39258,0.36523 0.63672,0.13867 1.22461,-0.51367 0.58789,0.29687 0.32227,-0.0859 -0.33399,0.83593 0.38477,1.48633 0.11718,0.60742 0.16016,0.42383 1.19141,0.65039 -0.0684,-0.98256 0.65429,-0.10937 0.002,0.008 -5e-5,-5e-5 0.35351,-0.078 0.12305,-0.94726 1.77734,0.75976 0.31641,-0.0762 0.002,-0.33594 0.35931,-1.29298 0.45703,-1.32227 -1.5293,-0.27539 -0.44336,-0.83984 -0.78123,-0.97266 0.12696,-1.26367 -0.60547,0.0605 -0.57422,0.70118 -1.20117,-0.55274 -0.42383,-0.52148 1.51758,-1.37114 -0.3086,-0.46289 -1.26953,0.86914 -0.81836,0.9668 -0.24218,-0.20703 -0.95313,0.2168 -0.15039,0.25586 0.55273,1.07226 -0.14453,0.26758 -0.40039,0.89648 z" transform="matrix(0.01469884,0,0,0.01013192,-5.1390171,41.362759)" id="69123 LYON" />
  </g>
</svg>
